G75*
%MOIN*%
%OFA0B0*%
%FSLAX24Y24*%
%IPPOS*%
%LPD*%
%AMOC8*
5,1,8,0,0,1.08239X$1,22.5*
%
%ADD10C,0.0000*%
%ADD11C,0.0060*%
%ADD12R,0.0787X0.0472*%
%ADD13C,0.0740*%
%ADD14R,0.0220X0.0780*%
%ADD15R,0.0433X0.0394*%
%ADD16R,0.0906X0.0630*%
%ADD17R,0.0480X0.0880*%
%ADD18R,0.1417X0.0866*%
%ADD19R,0.0394X0.0433*%
%ADD20C,0.0787*%
%ADD21R,0.0374X0.0413*%
%ADD22R,0.0315X0.0354*%
%ADD23C,0.0476*%
%ADD24C,0.0100*%
%ADD25C,0.0240*%
%ADD26C,0.0160*%
%ADD27C,0.0120*%
%ADD28C,0.0240*%
D10*
X000947Y000205D02*
X019058Y000205D01*
X019112Y000207D01*
X019165Y000212D01*
X019218Y000221D01*
X019270Y000234D01*
X019322Y000250D01*
X019372Y000270D01*
X019420Y000293D01*
X019467Y000320D01*
X019512Y000349D01*
X019555Y000382D01*
X019595Y000417D01*
X019633Y000455D01*
X019668Y000495D01*
X019701Y000538D01*
X019730Y000583D01*
X019757Y000630D01*
X019780Y000678D01*
X019800Y000728D01*
X019816Y000780D01*
X019829Y000832D01*
X019838Y000885D01*
X019843Y000938D01*
X019845Y000992D01*
X019845Y019103D01*
X019843Y019157D01*
X019838Y019210D01*
X019829Y019263D01*
X019816Y019315D01*
X019800Y019367D01*
X019780Y019417D01*
X019757Y019465D01*
X019730Y019512D01*
X019701Y019557D01*
X019668Y019600D01*
X019633Y019640D01*
X019595Y019678D01*
X019555Y019713D01*
X019512Y019746D01*
X019467Y019775D01*
X019420Y019802D01*
X019372Y019825D01*
X019322Y019845D01*
X019270Y019861D01*
X019218Y019874D01*
X019165Y019883D01*
X019112Y019888D01*
X019058Y019890D01*
X000947Y019890D01*
X000893Y019888D01*
X000840Y019883D01*
X000787Y019874D01*
X000735Y019861D01*
X000683Y019845D01*
X000633Y019825D01*
X000585Y019802D01*
X000538Y019775D01*
X000493Y019746D01*
X000450Y019713D01*
X000410Y019678D01*
X000372Y019640D01*
X000337Y019600D01*
X000304Y019557D01*
X000275Y019512D01*
X000248Y019465D01*
X000225Y019417D01*
X000205Y019367D01*
X000189Y019315D01*
X000176Y019263D01*
X000167Y019210D01*
X000162Y019157D01*
X000160Y019103D01*
X000160Y000992D01*
X000162Y000938D01*
X000167Y000885D01*
X000176Y000832D01*
X000189Y000780D01*
X000205Y000728D01*
X000225Y000678D01*
X000248Y000630D01*
X000275Y000583D01*
X000304Y000538D01*
X000337Y000495D01*
X000372Y000455D01*
X000410Y000417D01*
X000450Y000382D01*
X000493Y000349D01*
X000538Y000320D01*
X000585Y000293D01*
X000633Y000270D01*
X000683Y000250D01*
X000735Y000234D01*
X000787Y000221D01*
X000840Y000212D01*
X000893Y000207D01*
X000947Y000205D01*
X000753Y001192D02*
X000755Y001231D01*
X000761Y001270D01*
X000771Y001308D01*
X000784Y001345D01*
X000801Y001380D01*
X000821Y001414D01*
X000845Y001445D01*
X000872Y001474D01*
X000901Y001500D01*
X000933Y001523D01*
X000967Y001543D01*
X001003Y001559D01*
X001040Y001571D01*
X001079Y001580D01*
X001118Y001585D01*
X001157Y001586D01*
X001196Y001583D01*
X001235Y001576D01*
X001272Y001565D01*
X001309Y001551D01*
X001344Y001533D01*
X001377Y001512D01*
X001408Y001487D01*
X001436Y001460D01*
X001461Y001430D01*
X001483Y001397D01*
X001502Y001363D01*
X001517Y001327D01*
X001529Y001289D01*
X001537Y001251D01*
X001541Y001212D01*
X001541Y001172D01*
X001537Y001133D01*
X001529Y001095D01*
X001517Y001057D01*
X001502Y001021D01*
X001483Y000987D01*
X001461Y000954D01*
X001436Y000924D01*
X001408Y000897D01*
X001377Y000872D01*
X001344Y000851D01*
X001309Y000833D01*
X001272Y000819D01*
X001235Y000808D01*
X001196Y000801D01*
X001157Y000798D01*
X001118Y000799D01*
X001079Y000804D01*
X001040Y000813D01*
X001003Y000825D01*
X000967Y000841D01*
X000933Y000861D01*
X000901Y000884D01*
X000872Y000910D01*
X000845Y000939D01*
X000821Y000970D01*
X000801Y001004D01*
X000784Y001039D01*
X000771Y001076D01*
X000761Y001114D01*
X000755Y001153D01*
X000753Y001192D01*
X000753Y018903D02*
X000755Y018942D01*
X000761Y018981D01*
X000771Y019019D01*
X000784Y019056D01*
X000801Y019091D01*
X000821Y019125D01*
X000845Y019156D01*
X000872Y019185D01*
X000901Y019211D01*
X000933Y019234D01*
X000967Y019254D01*
X001003Y019270D01*
X001040Y019282D01*
X001079Y019291D01*
X001118Y019296D01*
X001157Y019297D01*
X001196Y019294D01*
X001235Y019287D01*
X001272Y019276D01*
X001309Y019262D01*
X001344Y019244D01*
X001377Y019223D01*
X001408Y019198D01*
X001436Y019171D01*
X001461Y019141D01*
X001483Y019108D01*
X001502Y019074D01*
X001517Y019038D01*
X001529Y019000D01*
X001537Y018962D01*
X001541Y018923D01*
X001541Y018883D01*
X001537Y018844D01*
X001529Y018806D01*
X001517Y018768D01*
X001502Y018732D01*
X001483Y018698D01*
X001461Y018665D01*
X001436Y018635D01*
X001408Y018608D01*
X001377Y018583D01*
X001344Y018562D01*
X001309Y018544D01*
X001272Y018530D01*
X001235Y018519D01*
X001196Y018512D01*
X001157Y018509D01*
X001118Y018510D01*
X001079Y018515D01*
X001040Y018524D01*
X001003Y018536D01*
X000967Y018552D01*
X000933Y018572D01*
X000901Y018595D01*
X000872Y018621D01*
X000845Y018650D01*
X000821Y018681D01*
X000801Y018715D01*
X000784Y018750D01*
X000771Y018787D01*
X000761Y018825D01*
X000755Y018864D01*
X000753Y018903D01*
X018464Y018903D02*
X018466Y018942D01*
X018472Y018981D01*
X018482Y019019D01*
X018495Y019056D01*
X018512Y019091D01*
X018532Y019125D01*
X018556Y019156D01*
X018583Y019185D01*
X018612Y019211D01*
X018644Y019234D01*
X018678Y019254D01*
X018714Y019270D01*
X018751Y019282D01*
X018790Y019291D01*
X018829Y019296D01*
X018868Y019297D01*
X018907Y019294D01*
X018946Y019287D01*
X018983Y019276D01*
X019020Y019262D01*
X019055Y019244D01*
X019088Y019223D01*
X019119Y019198D01*
X019147Y019171D01*
X019172Y019141D01*
X019194Y019108D01*
X019213Y019074D01*
X019228Y019038D01*
X019240Y019000D01*
X019248Y018962D01*
X019252Y018923D01*
X019252Y018883D01*
X019248Y018844D01*
X019240Y018806D01*
X019228Y018768D01*
X019213Y018732D01*
X019194Y018698D01*
X019172Y018665D01*
X019147Y018635D01*
X019119Y018608D01*
X019088Y018583D01*
X019055Y018562D01*
X019020Y018544D01*
X018983Y018530D01*
X018946Y018519D01*
X018907Y018512D01*
X018868Y018509D01*
X018829Y018510D01*
X018790Y018515D01*
X018751Y018524D01*
X018714Y018536D01*
X018678Y018552D01*
X018644Y018572D01*
X018612Y018595D01*
X018583Y018621D01*
X018556Y018650D01*
X018532Y018681D01*
X018512Y018715D01*
X018495Y018750D01*
X018482Y018787D01*
X018472Y018825D01*
X018466Y018864D01*
X018464Y018903D01*
X018464Y001192D02*
X018466Y001231D01*
X018472Y001270D01*
X018482Y001308D01*
X018495Y001345D01*
X018512Y001380D01*
X018532Y001414D01*
X018556Y001445D01*
X018583Y001474D01*
X018612Y001500D01*
X018644Y001523D01*
X018678Y001543D01*
X018714Y001559D01*
X018751Y001571D01*
X018790Y001580D01*
X018829Y001585D01*
X018868Y001586D01*
X018907Y001583D01*
X018946Y001576D01*
X018983Y001565D01*
X019020Y001551D01*
X019055Y001533D01*
X019088Y001512D01*
X019119Y001487D01*
X019147Y001460D01*
X019172Y001430D01*
X019194Y001397D01*
X019213Y001363D01*
X019228Y001327D01*
X019240Y001289D01*
X019248Y001251D01*
X019252Y001212D01*
X019252Y001172D01*
X019248Y001133D01*
X019240Y001095D01*
X019228Y001057D01*
X019213Y001021D01*
X019194Y000987D01*
X019172Y000954D01*
X019147Y000924D01*
X019119Y000897D01*
X019088Y000872D01*
X019055Y000851D01*
X019020Y000833D01*
X018983Y000819D01*
X018946Y000808D01*
X018907Y000801D01*
X018868Y000798D01*
X018829Y000799D01*
X018790Y000804D01*
X018751Y000813D01*
X018714Y000825D01*
X018678Y000841D01*
X018644Y000861D01*
X018612Y000884D01*
X018583Y000910D01*
X018556Y000939D01*
X018532Y000970D01*
X018512Y001004D01*
X018495Y001039D01*
X018482Y001076D01*
X018472Y001114D01*
X018466Y001153D01*
X018464Y001192D01*
D11*
X014210Y012935D02*
X014210Y013162D01*
X014380Y013105D02*
X014040Y013105D01*
X014210Y012935D01*
X014040Y013303D02*
X014380Y013303D01*
X014380Y013473D01*
X014323Y013530D01*
X014096Y013530D01*
X014040Y013473D01*
X014040Y013303D01*
X014153Y013672D02*
X014040Y013785D01*
X014153Y013898D01*
X014380Y013898D01*
X014380Y014040D02*
X014040Y014040D01*
X014040Y014210D01*
X014096Y014267D01*
X014323Y014267D01*
X014380Y014210D01*
X014380Y014040D01*
X014210Y013898D02*
X014210Y013672D01*
X014153Y013672D02*
X014380Y013672D01*
D12*
X013113Y009977D03*
X013113Y009189D03*
X013113Y008402D03*
X013113Y007614D03*
X013113Y006827D03*
X013113Y006040D03*
X013113Y005252D03*
X013113Y004465D03*
X007207Y004465D03*
X007207Y005252D03*
X007207Y006040D03*
X007207Y006827D03*
X007207Y007614D03*
X007207Y008402D03*
X007207Y009189D03*
X007207Y009977D03*
D13*
X005660Y010205D03*
X005660Y011205D03*
X005660Y012205D03*
X004160Y012205D03*
X004160Y011205D03*
X004160Y010205D03*
X004160Y009205D03*
X004160Y008205D03*
X004160Y007205D03*
X004160Y006205D03*
X004160Y005205D03*
X005660Y005205D03*
X005660Y006205D03*
X005660Y007205D03*
X005660Y008205D03*
X005660Y009205D03*
X006596Y000864D03*
X007596Y000864D03*
X008596Y000864D03*
X009596Y000864D03*
X010596Y000864D03*
X011596Y000864D03*
X012596Y000864D03*
X013596Y000864D03*
X014660Y005205D03*
X014660Y006205D03*
X014660Y007205D03*
X014660Y008205D03*
X014660Y009205D03*
X014660Y010205D03*
X014660Y011205D03*
X014660Y012205D03*
X016160Y012205D03*
X016160Y011205D03*
X016160Y010205D03*
X016160Y009205D03*
X016160Y008205D03*
X016160Y007205D03*
X016160Y006205D03*
X016160Y005205D03*
X007860Y019305D03*
X006860Y019305D03*
X005860Y019305D03*
X004860Y019305D03*
X003860Y019305D03*
X002860Y019305D03*
D14*
X003910Y016125D03*
X004410Y016125D03*
X004910Y016125D03*
X005410Y016125D03*
X005410Y014185D03*
X004910Y014185D03*
X004410Y014185D03*
X003910Y014185D03*
D15*
X002910Y014420D03*
X002910Y015090D03*
X002910Y013440D03*
X002910Y012770D03*
X004875Y013255D03*
X005545Y013255D03*
X007160Y014370D03*
X007160Y015040D03*
X009160Y015040D03*
X009160Y014370D03*
X011160Y014370D03*
X011160Y015040D03*
X013160Y015040D03*
X013160Y014370D03*
X010360Y003140D03*
X010360Y002470D03*
D16*
G36*
X015990Y001731D02*
X016630Y002371D01*
X017076Y001925D01*
X016436Y001285D01*
X015990Y001731D01*
G37*
G36*
X017744Y003485D02*
X018384Y004125D01*
X018830Y003679D01*
X018190Y003039D01*
X017744Y003485D01*
G37*
G36*
X003440Y002371D02*
X004080Y001731D01*
X003634Y001285D01*
X002994Y001925D01*
X003440Y002371D01*
G37*
G36*
X001686Y004125D02*
X002326Y003485D01*
X001880Y003039D01*
X001240Y003679D01*
X001686Y004125D01*
G37*
D17*
X010050Y016485D03*
X010960Y016485D03*
X011870Y016485D03*
D18*
X010960Y018925D03*
D19*
X013160Y016640D03*
X013160Y015970D03*
X012510Y003140D03*
X012510Y002470D03*
X008560Y002470D03*
X008560Y003140D03*
X007610Y003140D03*
X007610Y002470D03*
X006760Y002470D03*
X006760Y003140D03*
D20*
X015951Y015672D02*
X016738Y015672D01*
X016738Y018152D02*
X015951Y018152D01*
X014376Y017247D02*
X014376Y016459D01*
D21*
X015619Y014155D03*
X016840Y014155D03*
D22*
X011834Y003199D03*
X011086Y003199D03*
X011460Y002372D03*
D23*
X000910Y013364D03*
X000910Y013955D03*
X000910Y014546D03*
D24*
X000910Y013955D02*
X002160Y013955D01*
X002410Y014205D01*
X002410Y014805D01*
X002695Y015090D01*
X002910Y015090D01*
X002910Y014420D02*
X002910Y013955D01*
X002910Y013440D01*
X003410Y014105D02*
X003830Y014105D01*
X003910Y014185D01*
X004360Y014135D02*
X004360Y013655D01*
X004210Y013505D01*
X003710Y013505D01*
X004360Y014135D02*
X004410Y014185D01*
X004360Y014135D01*
X004910Y014185D02*
X004910Y013955D01*
X004910Y014185D02*
X004910Y014955D01*
X004410Y015455D01*
X004410Y016125D01*
X004910Y016125D02*
X004910Y015455D01*
X005430Y016105D02*
X005410Y016125D01*
X005430Y016105D02*
X007710Y016105D01*
X008160Y014455D02*
X009075Y014455D01*
X009160Y014370D01*
X010160Y014455D02*
X011075Y014455D01*
X011160Y014370D01*
X012760Y013955D02*
X007960Y013955D01*
X007810Y014105D01*
X007160Y014370D02*
X007145Y014355D01*
X006310Y014355D01*
X006910Y013705D02*
X012910Y013705D01*
X013160Y013955D01*
X013160Y014370D01*
X014660Y012205D02*
X016160Y012205D01*
X016160Y011205D02*
X014660Y011205D01*
X013810Y010355D01*
X013810Y009255D01*
X013744Y009189D01*
X013113Y009189D01*
X013113Y008402D02*
X013507Y008402D01*
X014110Y009005D01*
X014110Y009655D01*
X014660Y010205D01*
X016160Y010205D01*
X016160Y009205D02*
X014660Y009205D01*
X013960Y008505D01*
X013960Y008255D01*
X013319Y007614D01*
X013113Y007614D01*
X009619Y007614D01*
X009360Y007355D01*
X009538Y006827D02*
X009660Y006705D01*
X009538Y006827D02*
X007207Y006827D01*
X007038Y006827D01*
X005660Y008205D01*
X004160Y008205D01*
X004160Y007205D02*
X005660Y007205D01*
X006825Y006040D01*
X007207Y006040D01*
X008375Y006040D01*
X008560Y005855D01*
X007910Y005105D02*
X007763Y005252D01*
X007207Y005252D01*
X006863Y005252D01*
X005910Y006205D01*
X005660Y006205D01*
X004160Y006205D01*
X001810Y004555D02*
X001783Y004528D01*
X001783Y003582D01*
X006596Y000864D02*
X006610Y000878D01*
X006610Y001355D01*
X006810Y001555D01*
X009210Y001555D01*
X010060Y003105D02*
X010325Y003105D01*
X010360Y003140D01*
X010060Y003105D02*
X009960Y003205D01*
X011810Y003505D02*
X011834Y003481D01*
X011834Y003199D01*
X011910Y005055D02*
X011910Y005202D01*
X011960Y005252D01*
X010157Y005252D01*
X010057Y005252D01*
X009960Y005155D01*
X011960Y005252D02*
X013113Y005252D01*
X013457Y005252D01*
X014410Y006205D01*
X014660Y006205D01*
X016160Y006205D01*
X016160Y007205D02*
X014660Y007205D01*
X013495Y006040D01*
X013113Y006040D01*
X012645Y006040D01*
X012460Y005855D01*
X013113Y006827D02*
X013282Y006827D01*
X013838Y006827D01*
X013860Y006805D01*
X013282Y006827D02*
X014660Y008205D01*
X016160Y008205D01*
X013760Y010805D02*
X013760Y011305D01*
X014660Y012205D01*
X013760Y010805D02*
X013113Y010158D01*
X013113Y009977D01*
X014660Y005205D02*
X016160Y005205D01*
X016533Y001828D02*
X016533Y001578D01*
X015910Y000955D01*
X013606Y000955D01*
X013596Y000864D01*
X007207Y007614D02*
X007001Y007614D01*
X006660Y007955D01*
X006410Y008205D01*
X006410Y008455D01*
X005660Y009205D01*
X004160Y009205D01*
X004160Y010205D02*
X005660Y010205D01*
X006210Y009655D01*
X006210Y009055D01*
X006460Y008805D01*
X006863Y008402D01*
X007207Y008402D01*
X007207Y009189D02*
X006576Y009189D01*
X006510Y009255D01*
X006510Y010355D01*
X005660Y011205D01*
X004160Y011205D01*
X003060Y011205D01*
X002910Y011355D01*
X002010Y012205D02*
X004360Y012205D01*
X005660Y012205D01*
X006660Y011205D01*
X006660Y013455D01*
X006910Y013705D01*
X006660Y011205D02*
X006660Y010955D01*
X006660Y010705D01*
X007207Y010158D01*
X007207Y009977D01*
X004360Y012205D02*
X004160Y012205D01*
X004060Y017755D02*
X003860Y017955D01*
X003860Y018255D01*
X004060Y017755D02*
X013560Y017755D01*
X013260Y018505D02*
X013260Y019720D01*
X008760Y019720D01*
X008760Y018505D01*
X013260Y018505D01*
X013260Y018526D02*
X008760Y018526D01*
X008760Y018625D02*
X013260Y018625D01*
X013260Y018723D02*
X008760Y018723D01*
X008760Y018822D02*
X013260Y018822D01*
X013260Y018920D02*
X008760Y018920D01*
X008760Y019019D02*
X013260Y019019D01*
X013260Y019117D02*
X008760Y019117D01*
X008760Y019216D02*
X013260Y019216D01*
X013260Y019314D02*
X008760Y019314D01*
X008760Y019413D02*
X013260Y019413D01*
X013260Y019511D02*
X008760Y019511D01*
X008760Y019610D02*
X013260Y019610D01*
X013260Y019708D02*
X008760Y019708D01*
X005010Y018105D02*
X004860Y018255D01*
X004860Y019305D01*
X005010Y018105D02*
X015160Y018105D01*
D25*
X015160Y018105D03*
X015860Y016855D03*
X017310Y016155D03*
X019310Y016205D03*
X019310Y015505D03*
X019310Y014855D03*
X019310Y014205D03*
X019310Y013555D03*
X019310Y012955D03*
X019310Y011655D03*
X019310Y010955D03*
X019310Y010305D03*
X019310Y009705D03*
X019310Y009055D03*
X019310Y007855D03*
X019310Y007305D03*
X019310Y006705D03*
X019310Y006055D03*
X019310Y005405D03*
X019310Y004805D03*
X019310Y004205D03*
X019310Y003605D03*
X019310Y002955D03*
X019310Y002355D03*
X015360Y006705D03*
X015360Y007705D03*
X015360Y008705D03*
X015360Y009705D03*
X015360Y010705D03*
X012760Y013955D03*
X010660Y015705D03*
X010060Y015705D03*
X009460Y015705D03*
X008860Y015705D03*
X008260Y015705D03*
X007710Y016105D03*
X007460Y015705D03*
X006860Y015705D03*
X006260Y015705D03*
X006210Y016505D03*
X006860Y016505D03*
X006660Y014905D03*
X006310Y014355D03*
X004910Y015455D03*
X003410Y014105D03*
X002910Y013955D03*
X003360Y014705D03*
X003360Y015305D03*
X003360Y015905D03*
X003360Y016455D03*
X001960Y015555D03*
X001410Y015555D03*
X000560Y015505D03*
X000560Y016055D03*
X003710Y013505D03*
X002010Y012205D03*
X002910Y011355D03*
X000660Y011055D03*
X000660Y010405D03*
X000660Y009805D03*
X000660Y009205D03*
X000660Y008605D03*
X000660Y008005D03*
X000660Y007405D03*
X000660Y006805D03*
X000660Y006155D03*
X000660Y005505D03*
X000660Y004905D03*
X000660Y004305D03*
X000660Y003705D03*
X000660Y003055D03*
X000660Y002455D03*
X001810Y004555D03*
X004960Y005705D03*
X004960Y006705D03*
X006410Y004455D03*
X005910Y004155D03*
X005910Y003655D03*
X005910Y003105D03*
X005810Y001855D03*
X005810Y001155D03*
X005810Y000505D03*
X006510Y001855D03*
X007160Y001905D03*
X009210Y001555D03*
X009960Y003205D03*
X010860Y002855D03*
X011810Y003505D03*
X012110Y003805D03*
X012110Y004305D03*
X011910Y005055D03*
X011410Y004705D03*
X012460Y005855D03*
X012160Y007155D03*
X012160Y008105D03*
X012160Y008705D03*
X012160Y009305D03*
X012160Y009905D03*
X011560Y009905D03*
X010960Y009905D03*
X010160Y009905D03*
X009360Y009905D03*
X008760Y009905D03*
X008160Y009905D03*
X008160Y009305D03*
X008160Y008705D03*
X008160Y008105D03*
X008160Y007505D03*
X008160Y006505D03*
X008560Y005855D03*
X008160Y005655D03*
X007910Y005105D03*
X008960Y005305D03*
X009960Y005155D03*
X009660Y006705D03*
X009360Y007355D03*
X012810Y003805D03*
X013310Y003805D03*
X013760Y003905D03*
X013810Y004555D03*
X013810Y005055D03*
X013860Y006805D03*
X012010Y002805D03*
X013060Y001855D03*
X013660Y001855D03*
X014510Y001855D03*
X014510Y001355D03*
X014510Y000555D03*
X007810Y014105D03*
X008160Y014455D03*
X009460Y016455D03*
X010160Y014455D03*
X013560Y017755D03*
X012860Y018905D03*
X012360Y018905D03*
X011860Y018905D03*
X011860Y019505D03*
X012360Y019505D03*
X012860Y019505D03*
X011260Y019505D03*
X010660Y019505D03*
X010060Y019505D03*
X009560Y019505D03*
X009060Y019505D03*
X009060Y018905D03*
X009560Y018905D03*
X010060Y018905D03*
X003860Y018255D03*
X000660Y011705D03*
D26*
X000910Y014546D02*
X000960Y014596D01*
X000960Y017155D01*
X001160Y017355D01*
X011760Y017355D01*
X011870Y017245D01*
X011870Y016485D01*
X012010Y016245D01*
X012010Y016205D01*
X012245Y015970D01*
X013160Y015970D01*
X013425Y015705D01*
X014710Y015705D01*
X013160Y015040D02*
X011160Y015040D01*
X009160Y015040D01*
X007160Y015040D01*
X006795Y015040D01*
X006660Y014905D01*
X005910Y014905D01*
X005410Y014405D01*
X005410Y014185D01*
X005410Y013755D01*
X005545Y013620D01*
X005545Y013255D01*
X005410Y014185D02*
X004910Y014185D01*
X010960Y015240D02*
X011160Y015040D01*
X010960Y015240D02*
X010960Y016485D01*
X005660Y005205D02*
X004160Y005205D01*
X006410Y004455D02*
X006410Y003490D01*
X006760Y003140D01*
X007610Y003140D01*
X008560Y003140D01*
X008745Y003140D01*
X009160Y003555D01*
X010730Y003555D01*
X011086Y003199D01*
X011086Y003081D01*
X010860Y002855D01*
X011460Y002372D02*
X011477Y002355D01*
X012160Y002355D01*
X012275Y002470D01*
X012310Y002470D01*
X012010Y002770D01*
X012010Y002805D01*
X012310Y002470D02*
X012510Y002470D01*
X011460Y002372D02*
X011460Y001001D01*
X011596Y000864D01*
X007207Y004465D02*
X007197Y004455D01*
X006410Y004455D01*
D27*
X000504Y000549D02*
X000388Y000708D01*
X000328Y000894D01*
X000320Y000992D01*
X000320Y019103D01*
X000328Y019201D01*
X000388Y019387D01*
X000504Y019546D01*
X000663Y019662D01*
X000849Y019722D01*
X000947Y019730D01*
X002632Y019730D01*
X002588Y019712D01*
X002453Y019577D01*
X002380Y019400D01*
X002380Y019210D01*
X002453Y019033D01*
X002588Y018898D01*
X002765Y018825D01*
X002955Y018825D01*
X003132Y018898D01*
X003267Y019033D01*
X003340Y019210D01*
X003340Y019400D01*
X003267Y019577D01*
X003132Y019712D01*
X003088Y019730D01*
X003632Y019730D01*
X003588Y019712D01*
X003453Y019577D01*
X003380Y019400D01*
X003380Y019210D01*
X003453Y019033D01*
X003588Y018898D01*
X003765Y018825D01*
X003955Y018825D01*
X004132Y018898D01*
X004267Y019033D01*
X004340Y019210D01*
X004340Y019400D01*
X004267Y019577D01*
X004132Y019712D01*
X004088Y019730D01*
X004632Y019730D01*
X004588Y019712D01*
X004453Y019577D01*
X004380Y019400D01*
X004380Y019210D01*
X004453Y019033D01*
X004588Y018898D01*
X004700Y018852D01*
X004700Y018189D01*
X004794Y018095D01*
X004944Y017945D01*
X013425Y017945D01*
X013395Y017915D01*
X004126Y017915D01*
X004020Y018021D01*
X004020Y018090D01*
X004090Y018160D01*
X004090Y018350D01*
X003955Y018485D01*
X003765Y018485D01*
X003630Y018350D01*
X003630Y018160D01*
X003700Y018090D01*
X003700Y017889D01*
X003794Y017795D01*
X003994Y017595D01*
X013395Y017595D01*
X013465Y017525D01*
X013655Y017525D01*
X013790Y017660D01*
X013790Y017850D01*
X013695Y017945D01*
X014995Y017945D01*
X015065Y017875D01*
X015255Y017875D01*
X015390Y018010D01*
X015390Y018200D01*
X015255Y018335D01*
X015065Y018335D01*
X014995Y018265D01*
X005076Y018265D01*
X005020Y018321D01*
X005020Y018852D01*
X005132Y018898D01*
X005267Y019033D01*
X005340Y019210D01*
X005340Y019400D01*
X005267Y019577D01*
X005132Y019712D01*
X005088Y019730D01*
X005632Y019730D01*
X005588Y019712D01*
X005453Y019577D01*
X005380Y019400D01*
X005380Y019210D01*
X005453Y019033D01*
X005588Y018898D01*
X005765Y018825D01*
X005955Y018825D01*
X006132Y018898D01*
X006267Y019033D01*
X006340Y019210D01*
X006340Y019400D01*
X006267Y019577D01*
X006132Y019712D01*
X006088Y019730D01*
X006632Y019730D01*
X006588Y019712D01*
X006453Y019577D01*
X006380Y019400D01*
X006380Y019210D01*
X006453Y019033D01*
X006588Y018898D01*
X006765Y018825D01*
X006955Y018825D01*
X007132Y018898D01*
X007267Y019033D01*
X007339Y019207D01*
X007343Y019181D01*
X007369Y019102D01*
X007407Y019027D01*
X007456Y018960D01*
X007515Y018901D01*
X007582Y018852D01*
X007657Y018814D01*
X007736Y018788D01*
X007818Y018775D01*
X007820Y018775D01*
X007820Y019265D01*
X007900Y019265D01*
X007900Y019345D01*
X008390Y019345D01*
X008390Y019347D01*
X008377Y019429D01*
X008351Y019508D01*
X008313Y019583D01*
X008264Y019650D01*
X008205Y019709D01*
X008177Y019730D01*
X008530Y019730D01*
X008530Y018410D01*
X008665Y018275D01*
X013355Y018275D01*
X013490Y018410D01*
X013490Y019730D01*
X019058Y019730D01*
X019156Y019722D01*
X019342Y019662D01*
X019501Y019546D01*
X019617Y019387D01*
X019677Y019201D01*
X019685Y019103D01*
X019685Y000992D01*
X019677Y000894D01*
X019617Y000708D01*
X019501Y000549D01*
X019342Y000433D01*
X019156Y000373D01*
X019058Y000365D01*
X010775Y000365D01*
X010800Y000373D01*
X010874Y000411D01*
X010942Y000460D01*
X011001Y000519D01*
X011050Y000586D01*
X011087Y000661D01*
X011113Y000740D01*
X011117Y000766D01*
X011189Y000592D01*
X011324Y000457D01*
X011501Y000384D01*
X011692Y000384D01*
X011868Y000457D01*
X012003Y000592D01*
X012076Y000769D01*
X012076Y000960D01*
X012003Y001136D01*
X011868Y001271D01*
X011692Y001344D01*
X011650Y001344D01*
X011650Y002085D01*
X011663Y002085D01*
X011727Y002149D01*
X011727Y002165D01*
X012239Y002165D01*
X012243Y002169D01*
X012268Y002144D01*
X012752Y002144D01*
X012817Y002208D01*
X012817Y002732D01*
X012773Y002776D01*
X012805Y002795D01*
X012835Y002825D01*
X012856Y002861D01*
X012867Y002902D01*
X012867Y003101D01*
X012548Y003101D01*
X012548Y003178D01*
X012472Y003178D01*
X012472Y003516D01*
X012292Y003516D01*
X012251Y003505D01*
X012215Y003484D01*
X012185Y003454D01*
X012164Y003418D01*
X012153Y003377D01*
X012153Y003178D01*
X012472Y003178D01*
X012472Y003101D01*
X012153Y003101D01*
X012153Y002987D01*
X012105Y003035D01*
X012101Y003035D01*
X012101Y003421D01*
X012040Y003483D01*
X012040Y003600D01*
X011905Y003735D01*
X011715Y003735D01*
X011580Y003600D01*
X011580Y003435D01*
X011567Y003421D01*
X011567Y002976D01*
X011631Y002912D01*
X011791Y002912D01*
X011780Y002900D01*
X011780Y002710D01*
X011915Y002575D01*
X011937Y002575D01*
X011967Y002545D01*
X011727Y002545D01*
X011727Y002595D01*
X011663Y002659D01*
X011257Y002659D01*
X011193Y002595D01*
X011193Y002149D01*
X011257Y002085D01*
X011270Y002085D01*
X011270Y001217D01*
X011189Y001136D01*
X011117Y000962D01*
X011113Y000988D01*
X011087Y001068D01*
X011050Y001142D01*
X011001Y001209D01*
X010942Y001268D01*
X010874Y001318D01*
X010800Y001355D01*
X010720Y001381D01*
X010638Y001394D01*
X010636Y001394D01*
X010636Y000904D01*
X010556Y000904D01*
X010556Y001394D01*
X010555Y001394D01*
X010472Y001381D01*
X010393Y001355D01*
X010319Y001318D01*
X010251Y001268D01*
X010192Y001209D01*
X010143Y001142D01*
X010105Y001068D01*
X010079Y000988D01*
X010075Y000962D01*
X010003Y001136D01*
X009868Y001271D01*
X009692Y001344D01*
X009501Y001344D01*
X009324Y001271D01*
X009189Y001136D01*
X009116Y000960D01*
X009116Y000769D01*
X009189Y000592D01*
X009324Y000457D01*
X009501Y000384D01*
X009692Y000384D01*
X009868Y000457D01*
X010003Y000592D01*
X010075Y000766D01*
X010079Y000740D01*
X010105Y000661D01*
X010143Y000586D01*
X010192Y000519D01*
X010251Y000460D01*
X010319Y000411D01*
X010393Y000373D01*
X010418Y000365D01*
X000947Y000365D01*
X000849Y000373D01*
X000663Y000433D01*
X000504Y000549D01*
X000495Y000561D02*
X006221Y000561D01*
X006189Y000592D02*
X006324Y000457D01*
X006501Y000384D01*
X006692Y000384D01*
X006868Y000457D01*
X007003Y000592D01*
X007076Y000769D01*
X007076Y000960D01*
X007003Y001136D01*
X006868Y001271D01*
X006786Y001305D01*
X006876Y001395D01*
X009045Y001395D01*
X009115Y001325D01*
X009305Y001325D01*
X009440Y001460D01*
X009440Y001650D01*
X009305Y001785D01*
X009115Y001785D01*
X009045Y001715D01*
X006744Y001715D01*
X006544Y001515D01*
X006450Y001421D01*
X006450Y001323D01*
X006324Y001271D01*
X006189Y001136D01*
X006116Y000960D01*
X006116Y000769D01*
X006189Y000592D01*
X006153Y000679D02*
X001355Y000679D01*
X001258Y000639D02*
X001461Y000723D01*
X001617Y000879D01*
X001701Y001082D01*
X001701Y001303D01*
X001617Y001506D01*
X001461Y001662D01*
X001258Y001746D01*
X001037Y001746D01*
X000834Y001662D01*
X000678Y001506D01*
X000594Y001303D01*
X000594Y001082D01*
X000678Y000879D01*
X000834Y000723D01*
X001037Y000639D01*
X001258Y000639D01*
X001536Y000798D02*
X006116Y000798D01*
X006116Y000916D02*
X001632Y000916D01*
X001681Y001035D02*
X006147Y001035D01*
X006206Y001153D02*
X003725Y001153D01*
X003733Y001157D02*
X003928Y001352D01*
X003537Y001743D01*
X003622Y001828D01*
X004013Y001437D01*
X004208Y001632D01*
X004229Y001669D01*
X004240Y001710D01*
X004240Y001752D01*
X004229Y001792D01*
X004208Y001829D01*
X003915Y002121D01*
X003622Y001828D01*
X003537Y001913D01*
X003830Y002206D01*
X003538Y002499D01*
X003501Y002520D01*
X003461Y002531D01*
X003418Y002531D01*
X003378Y002520D01*
X003341Y002499D01*
X003146Y002304D01*
X003537Y001913D01*
X003452Y001828D01*
X003537Y001743D01*
X003243Y001450D01*
X003536Y001157D01*
X003573Y001136D01*
X003613Y001125D01*
X003655Y001125D01*
X003696Y001136D01*
X003733Y001157D01*
X003847Y001272D02*
X006325Y001272D01*
X006450Y001390D02*
X003890Y001390D01*
X003941Y001509D02*
X003772Y001509D01*
X003823Y001627D02*
X003653Y001627D01*
X003704Y001746D02*
X003539Y001746D01*
X003535Y001746D02*
X003370Y001746D01*
X003452Y001828D02*
X003159Y001535D01*
X002866Y001827D01*
X002845Y001864D01*
X000320Y001864D01*
X000320Y001746D02*
X001036Y001746D01*
X001259Y001746D02*
X002948Y001746D01*
X002845Y001864D02*
X002834Y001904D01*
X002834Y001947D01*
X002845Y001987D01*
X002866Y002024D01*
X003061Y002219D01*
X003452Y001828D01*
X003416Y001864D02*
X003488Y001864D01*
X003586Y001864D02*
X003658Y001864D01*
X003607Y001983D02*
X003776Y001983D01*
X003725Y002101D02*
X003895Y002101D01*
X003936Y002101D02*
X006515Y002101D01*
X006501Y002105D02*
X006542Y002094D01*
X006722Y002094D01*
X006722Y002432D01*
X006798Y002432D01*
X006798Y002094D01*
X006978Y002094D01*
X007019Y002105D01*
X007055Y002126D01*
X007085Y002156D01*
X007106Y002192D01*
X007117Y002233D01*
X007117Y002432D01*
X006798Y002432D01*
X006798Y002509D01*
X007117Y002509D01*
X007117Y002708D01*
X007106Y002749D01*
X007085Y002785D01*
X007055Y002815D01*
X007023Y002834D01*
X007067Y002878D01*
X007067Y002950D01*
X007303Y002950D01*
X007303Y002878D01*
X007347Y002834D01*
X007315Y002815D01*
X007285Y002785D01*
X007264Y002749D01*
X007253Y002708D01*
X007253Y002509D01*
X007572Y002509D01*
X007572Y002432D01*
X007648Y002432D01*
X007648Y002094D01*
X007828Y002094D01*
X007869Y002105D01*
X007905Y002126D01*
X007935Y002156D01*
X007956Y002192D01*
X007967Y002233D01*
X007967Y002432D01*
X007648Y002432D01*
X007648Y002509D01*
X007967Y002509D01*
X007967Y002708D01*
X007956Y002749D01*
X007935Y002785D01*
X007905Y002815D01*
X007873Y002834D01*
X007917Y002878D01*
X007917Y002950D01*
X008253Y002950D01*
X008253Y002878D01*
X008297Y002834D01*
X008265Y002815D01*
X008235Y002785D01*
X008214Y002749D01*
X008203Y002708D01*
X008203Y002509D01*
X008522Y002509D01*
X008522Y002432D01*
X008598Y002432D01*
X008598Y002094D01*
X008778Y002094D01*
X008819Y002105D01*
X008855Y002126D01*
X008885Y002156D01*
X008906Y002192D01*
X008917Y002233D01*
X008917Y002432D01*
X008598Y002432D01*
X008598Y002509D01*
X008917Y002509D01*
X008917Y002708D01*
X008906Y002749D01*
X008885Y002785D01*
X008855Y002815D01*
X008823Y002834D01*
X008867Y002878D01*
X008867Y002993D01*
X009239Y003365D01*
X009795Y003365D01*
X009730Y003300D01*
X009730Y003110D01*
X009865Y002975D01*
X009964Y002975D01*
X009994Y002945D01*
X010033Y002945D01*
X010033Y002897D01*
X010098Y002833D01*
X010622Y002833D01*
X010630Y002841D01*
X010630Y002819D01*
X010598Y002827D01*
X010398Y002827D01*
X010398Y002509D01*
X010322Y002509D01*
X010322Y002827D01*
X010122Y002827D01*
X010082Y002816D01*
X010045Y002795D01*
X010015Y002765D01*
X009994Y002729D01*
X009983Y002688D01*
X009983Y002509D01*
X010322Y002509D01*
X010322Y002432D01*
X010398Y002432D01*
X010398Y002114D01*
X010598Y002114D01*
X010638Y002124D01*
X010675Y002145D01*
X010705Y002175D01*
X010726Y002212D01*
X010737Y002252D01*
X010737Y002432D01*
X010398Y002432D01*
X010398Y002509D01*
X010737Y002509D01*
X010737Y002653D01*
X010765Y002625D01*
X010955Y002625D01*
X011090Y002760D01*
X011090Y002816D01*
X011185Y002912D01*
X011289Y002912D01*
X011353Y002976D01*
X011353Y003421D01*
X011289Y003486D01*
X011068Y003486D01*
X010808Y003745D01*
X009081Y003745D01*
X008970Y003634D01*
X008970Y003634D01*
X008802Y003466D01*
X008318Y003466D01*
X008253Y003402D01*
X008253Y003330D01*
X007917Y003330D01*
X007917Y003402D01*
X007852Y003466D01*
X007368Y003466D01*
X007303Y003402D01*
X007303Y003330D01*
X007067Y003330D01*
X007067Y003402D01*
X007002Y003466D01*
X006702Y003466D01*
X006600Y003568D01*
X006600Y004265D01*
X006704Y004265D01*
X006704Y004183D01*
X006768Y004119D01*
X007647Y004119D01*
X007711Y004183D01*
X007711Y004747D01*
X007647Y004811D01*
X006768Y004811D01*
X006704Y004747D01*
X006704Y004645D01*
X006545Y004645D01*
X006505Y004685D01*
X006315Y004685D01*
X006180Y004550D01*
X006180Y004360D01*
X006220Y004320D01*
X006220Y003411D01*
X006453Y003178D01*
X006453Y002878D01*
X006497Y002834D01*
X006465Y002815D01*
X006435Y002785D01*
X006414Y002749D01*
X006403Y002708D01*
X006403Y002509D01*
X006722Y002509D01*
X006722Y002432D01*
X006403Y002432D01*
X006403Y002233D01*
X006414Y002192D01*
X006435Y002156D01*
X006465Y002126D01*
X006501Y002105D01*
X006407Y002220D02*
X003817Y002220D01*
X003699Y002338D02*
X006403Y002338D01*
X006403Y002575D02*
X000320Y002575D01*
X000320Y002457D02*
X003299Y002457D01*
X003180Y002338D02*
X000320Y002338D01*
X000320Y002220D02*
X003230Y002220D01*
X003179Y002101D02*
X003349Y002101D01*
X003298Y001983D02*
X003467Y001983D01*
X003421Y001627D02*
X003251Y001627D01*
X003302Y001509D02*
X001614Y001509D01*
X001665Y001390D02*
X003303Y001390D01*
X003422Y001272D02*
X001701Y001272D01*
X001701Y001153D02*
X003543Y001153D01*
X003066Y001627D02*
X001496Y001627D01*
X000799Y001627D02*
X000320Y001627D01*
X000320Y001509D02*
X000680Y001509D01*
X000630Y001390D02*
X000320Y001390D01*
X000320Y001272D02*
X000594Y001272D01*
X000594Y001153D02*
X000320Y001153D01*
X000320Y001035D02*
X000613Y001035D01*
X000663Y000916D02*
X000326Y000916D01*
X000359Y000798D02*
X000759Y000798D01*
X000940Y000679D02*
X000409Y000679D01*
X000651Y000442D02*
X006361Y000442D01*
X006831Y000442D02*
X007361Y000442D01*
X007324Y000457D02*
X007501Y000384D01*
X007692Y000384D01*
X007868Y000457D01*
X008003Y000592D01*
X008076Y000769D01*
X008076Y000960D01*
X008003Y001136D01*
X007868Y001271D01*
X007692Y001344D01*
X007501Y001344D01*
X007324Y001271D01*
X007189Y001136D01*
X007116Y000960D01*
X007116Y000769D01*
X007189Y000592D01*
X007324Y000457D01*
X007221Y000561D02*
X006971Y000561D01*
X007039Y000679D02*
X007153Y000679D01*
X007116Y000798D02*
X007076Y000798D01*
X007076Y000916D02*
X007116Y000916D01*
X007147Y001035D02*
X007045Y001035D01*
X006986Y001153D02*
X007206Y001153D01*
X007325Y001272D02*
X006867Y001272D01*
X006871Y001390D02*
X009050Y001390D01*
X008868Y001271D02*
X008692Y001344D01*
X008501Y001344D01*
X008324Y001271D01*
X008189Y001136D01*
X008116Y000960D01*
X008116Y000769D01*
X008189Y000592D01*
X008324Y000457D01*
X008501Y000384D01*
X008692Y000384D01*
X008868Y000457D01*
X009003Y000592D01*
X009076Y000769D01*
X009076Y000960D01*
X009003Y001136D01*
X008868Y001271D01*
X008867Y001272D02*
X009325Y001272D01*
X009370Y001390D02*
X010528Y001390D01*
X010556Y001390D02*
X010636Y001390D01*
X010665Y001390D02*
X011270Y001390D01*
X011270Y001272D02*
X010937Y001272D01*
X011042Y001153D02*
X011206Y001153D01*
X011147Y001035D02*
X011098Y001035D01*
X011093Y000679D02*
X011153Y000679D01*
X011221Y000561D02*
X011031Y000561D01*
X010917Y000442D02*
X011361Y000442D01*
X011831Y000442D02*
X012361Y000442D01*
X012324Y000457D02*
X012501Y000384D01*
X012692Y000384D01*
X012868Y000457D01*
X013003Y000592D01*
X013076Y000769D01*
X013076Y000960D01*
X013003Y001136D01*
X012868Y001271D01*
X012692Y001344D01*
X012501Y001344D01*
X012324Y001271D01*
X012189Y001136D01*
X012116Y000960D01*
X012116Y000769D01*
X012189Y000592D01*
X012324Y000457D01*
X012221Y000561D02*
X011971Y000561D01*
X012039Y000679D02*
X012153Y000679D01*
X012116Y000798D02*
X012076Y000798D01*
X012076Y000916D02*
X012116Y000916D01*
X012147Y001035D02*
X012045Y001035D01*
X011986Y001153D02*
X012206Y001153D01*
X012325Y001272D02*
X011867Y001272D01*
X011650Y001390D02*
X016119Y001390D01*
X016147Y001418D02*
X015844Y001115D01*
X014012Y001115D01*
X014003Y001136D01*
X013868Y001271D01*
X013692Y001344D01*
X013501Y001344D01*
X013324Y001271D01*
X013189Y001136D01*
X013116Y000960D01*
X013116Y000769D01*
X013189Y000592D01*
X013324Y000457D01*
X013501Y000384D01*
X013692Y000384D01*
X013868Y000457D01*
X014003Y000592D01*
X014076Y000769D01*
X014076Y000795D01*
X015976Y000795D01*
X016070Y000889D01*
X016373Y001192D01*
X016390Y001175D01*
X016481Y001175D01*
X017186Y001880D01*
X017186Y001971D01*
X016676Y002481D01*
X016585Y002481D01*
X015880Y001776D01*
X015880Y001685D01*
X016147Y001418D01*
X016057Y001509D02*
X011650Y001509D01*
X011650Y001627D02*
X015938Y001627D01*
X015880Y001746D02*
X011650Y001746D01*
X011650Y001864D02*
X015968Y001864D01*
X016087Y001983D02*
X011650Y001983D01*
X011679Y002101D02*
X016205Y002101D01*
X016324Y002220D02*
X012817Y002220D01*
X012817Y002338D02*
X016442Y002338D01*
X016561Y002457D02*
X012817Y002457D01*
X012817Y002575D02*
X019685Y002575D01*
X019685Y002457D02*
X016701Y002457D01*
X016819Y002338D02*
X019685Y002338D01*
X019685Y002220D02*
X016938Y002220D01*
X017056Y002101D02*
X019685Y002101D01*
X019685Y001983D02*
X017175Y001983D01*
X017170Y001864D02*
X019685Y001864D01*
X019685Y001746D02*
X018969Y001746D01*
X018968Y001746D02*
X018747Y001746D01*
X018544Y001662D01*
X018388Y001506D01*
X018304Y001303D01*
X018304Y001082D01*
X018388Y000879D01*
X018544Y000723D01*
X018747Y000639D01*
X018968Y000639D01*
X019171Y000723D01*
X019327Y000879D01*
X019411Y001082D01*
X019411Y001303D01*
X019327Y001506D01*
X019171Y001662D01*
X018968Y001746D01*
X018746Y001746D02*
X017051Y001746D01*
X016933Y001627D02*
X018509Y001627D01*
X018391Y001509D02*
X016814Y001509D01*
X016696Y001390D02*
X018340Y001390D01*
X018304Y001272D02*
X016577Y001272D01*
X016334Y001153D02*
X018304Y001153D01*
X018324Y001035D02*
X016216Y001035D01*
X016097Y000916D02*
X018373Y000916D01*
X018469Y000798D02*
X015979Y000798D01*
X015882Y001153D02*
X013986Y001153D01*
X013867Y001272D02*
X016000Y001272D01*
X014039Y000679D02*
X018650Y000679D01*
X019065Y000679D02*
X019596Y000679D01*
X019646Y000798D02*
X019246Y000798D01*
X019342Y000916D02*
X019679Y000916D01*
X019685Y001035D02*
X019392Y001035D01*
X019411Y001153D02*
X019685Y001153D01*
X019685Y001272D02*
X019411Y001272D01*
X019375Y001390D02*
X019685Y001390D01*
X019685Y001509D02*
X019325Y001509D01*
X019206Y001627D02*
X019685Y001627D01*
X019685Y002694D02*
X012817Y002694D01*
X012822Y002812D02*
X019685Y002812D01*
X019685Y002931D02*
X018307Y002931D01*
X018288Y002911D02*
X018580Y003204D01*
X018287Y003497D01*
X018372Y003582D01*
X018287Y003667D01*
X018678Y004058D01*
X018483Y004253D01*
X018446Y004274D01*
X018405Y004285D01*
X018363Y004285D01*
X018323Y004274D01*
X018286Y004253D01*
X017993Y003960D01*
X018287Y003667D01*
X018202Y003582D01*
X017909Y003875D01*
X017616Y003583D01*
X017595Y003546D01*
X017584Y003506D01*
X017584Y003463D01*
X017595Y003423D01*
X017616Y003386D01*
X017811Y003191D01*
X018202Y003582D01*
X018287Y003497D01*
X017896Y003106D01*
X018091Y002911D01*
X018128Y002890D01*
X018168Y002879D01*
X018211Y002879D01*
X018251Y002890D01*
X018288Y002911D01*
X018426Y003049D02*
X019685Y003049D01*
X019685Y003168D02*
X018544Y003168D01*
X018498Y003286D02*
X019685Y003286D01*
X019685Y003405D02*
X018781Y003405D01*
X018665Y003288D02*
X018958Y003581D01*
X018979Y003618D01*
X018990Y003658D01*
X018990Y003700D01*
X018979Y003741D01*
X018958Y003778D01*
X018763Y003973D01*
X018372Y003582D01*
X018665Y003288D01*
X018549Y003405D02*
X018379Y003405D01*
X018431Y003523D02*
X018313Y003523D01*
X018261Y003523D02*
X018143Y003523D01*
X018142Y003642D02*
X018262Y003642D01*
X018312Y003642D02*
X018431Y003642D01*
X018380Y003760D02*
X018550Y003760D01*
X018499Y003879D02*
X018668Y003879D01*
X018617Y003997D02*
X019685Y003997D01*
X019685Y003879D02*
X018857Y003879D01*
X018968Y003760D02*
X019685Y003760D01*
X019685Y003642D02*
X018985Y003642D01*
X018900Y003523D02*
X019685Y003523D01*
X019685Y004116D02*
X018620Y004116D01*
X018501Y004234D02*
X019685Y004234D01*
X019685Y004353D02*
X013666Y004353D01*
X013666Y004407D02*
X013171Y004407D01*
X013171Y004523D01*
X013666Y004523D01*
X013666Y004722D01*
X013656Y004763D01*
X013634Y004799D01*
X013605Y004829D01*
X013568Y004850D01*
X013528Y004861D01*
X013171Y004861D01*
X013171Y004523D01*
X013055Y004523D01*
X013055Y004861D01*
X012698Y004861D01*
X012657Y004850D01*
X012621Y004829D01*
X012591Y004799D01*
X012570Y004763D01*
X012559Y004722D01*
X012559Y004523D01*
X013055Y004523D01*
X013055Y004407D01*
X013171Y004407D01*
X013171Y004069D01*
X013528Y004069D01*
X013568Y004080D01*
X013605Y004101D01*
X013634Y004130D01*
X013656Y004167D01*
X013666Y004208D01*
X013666Y004407D01*
X013666Y004234D02*
X018267Y004234D01*
X018149Y004116D02*
X013620Y004116D01*
X013666Y004590D02*
X019685Y004590D01*
X019685Y004708D02*
X016346Y004708D01*
X016363Y004714D02*
X016438Y004752D01*
X016505Y004801D01*
X016564Y004860D01*
X016613Y004927D01*
X016651Y005002D01*
X016677Y005081D01*
X016690Y005163D01*
X016690Y005165D01*
X016200Y005165D01*
X016200Y005245D01*
X016690Y005245D01*
X016690Y005247D01*
X016677Y005329D01*
X016651Y005408D01*
X016613Y005483D01*
X016564Y005550D01*
X016505Y005609D01*
X016438Y005658D01*
X016363Y005696D01*
X016284Y005722D01*
X016258Y005726D01*
X016432Y005798D01*
X016567Y005933D01*
X016640Y006110D01*
X016640Y006300D01*
X016567Y006477D01*
X016432Y006612D01*
X016255Y006685D01*
X016065Y006685D01*
X015888Y006612D01*
X015753Y006477D01*
X015707Y006365D01*
X015113Y006365D01*
X015067Y006477D01*
X014932Y006612D01*
X014755Y006685D01*
X014565Y006685D01*
X014388Y006612D01*
X014253Y006477D01*
X014180Y006300D01*
X014180Y006201D01*
X013565Y005586D01*
X013552Y005598D01*
X012673Y005598D01*
X012609Y005534D01*
X012609Y005412D01*
X009991Y005412D01*
X009964Y005385D01*
X009865Y005385D01*
X009730Y005250D01*
X009730Y005060D01*
X009865Y004925D01*
X010055Y004925D01*
X010190Y005060D01*
X010190Y005092D01*
X011680Y005092D01*
X011680Y004960D01*
X011815Y004825D01*
X012005Y004825D01*
X012140Y004960D01*
X012140Y005092D01*
X012609Y005092D01*
X012609Y004970D01*
X012673Y004906D01*
X013552Y004906D01*
X013616Y004970D01*
X013616Y005185D01*
X014309Y005877D01*
X014388Y005798D01*
X014562Y005726D01*
X014536Y005722D01*
X014457Y005696D01*
X014382Y005658D01*
X014315Y005609D01*
X014256Y005550D01*
X014207Y005483D01*
X014169Y005408D01*
X014143Y005329D01*
X014130Y005247D01*
X014130Y005245D01*
X014620Y005245D01*
X014620Y005165D01*
X014700Y005165D01*
X014700Y005245D01*
X015190Y005245D01*
X015190Y005247D01*
X015177Y005329D01*
X015151Y005408D01*
X015113Y005483D01*
X015064Y005550D01*
X015005Y005609D01*
X014938Y005658D01*
X014863Y005696D01*
X014784Y005722D01*
X014758Y005726D01*
X014932Y005798D01*
X015067Y005933D01*
X015113Y006045D01*
X015707Y006045D01*
X015753Y005933D01*
X015888Y005798D01*
X016062Y005726D01*
X016036Y005722D01*
X015957Y005696D01*
X015882Y005658D01*
X015815Y005609D01*
X015756Y005550D01*
X015707Y005483D01*
X015669Y005408D01*
X015643Y005329D01*
X015630Y005247D01*
X015630Y005245D01*
X016120Y005245D01*
X016120Y005165D01*
X016200Y005165D01*
X016200Y004675D01*
X016202Y004675D01*
X016284Y004688D01*
X016363Y004714D01*
X016200Y004708D02*
X016120Y004708D01*
X016120Y004675D02*
X016120Y005165D01*
X015630Y005165D01*
X015630Y005163D01*
X015643Y005081D01*
X015669Y005002D01*
X015707Y004927D01*
X015756Y004860D01*
X015815Y004801D01*
X015882Y004752D01*
X015957Y004714D01*
X016036Y004688D01*
X016118Y004675D01*
X016120Y004675D01*
X015974Y004708D02*
X014846Y004708D01*
X014863Y004714D02*
X014938Y004752D01*
X015005Y004801D01*
X015064Y004860D01*
X015113Y004927D01*
X015151Y005002D01*
X015177Y005081D01*
X015190Y005163D01*
X015190Y005165D01*
X014700Y005165D01*
X014700Y004675D01*
X014702Y004675D01*
X014784Y004688D01*
X014863Y004714D01*
X014700Y004708D02*
X014620Y004708D01*
X014620Y004675D02*
X014620Y005165D01*
X014130Y005165D01*
X014130Y005163D01*
X014143Y005081D01*
X014169Y005002D01*
X014207Y004927D01*
X014256Y004860D01*
X014315Y004801D01*
X014382Y004752D01*
X014457Y004714D01*
X014536Y004688D01*
X014618Y004675D01*
X014620Y004675D01*
X014474Y004708D02*
X013666Y004708D01*
X013607Y004827D02*
X014289Y004827D01*
X014198Y004945D02*
X013591Y004945D01*
X013616Y005064D02*
X014149Y005064D01*
X014139Y005301D02*
X013732Y005301D01*
X013616Y005182D02*
X014620Y005182D01*
X014700Y005182D02*
X016120Y005182D01*
X016200Y005182D02*
X019685Y005182D01*
X019685Y005064D02*
X016671Y005064D01*
X016622Y004945D02*
X019685Y004945D01*
X019685Y004827D02*
X016531Y004827D01*
X016200Y004827D02*
X016120Y004827D01*
X016120Y004945D02*
X016200Y004945D01*
X016200Y005064D02*
X016120Y005064D01*
X015789Y004827D02*
X015031Y004827D01*
X015122Y004945D02*
X015698Y004945D01*
X015649Y005064D02*
X015171Y005064D01*
X015181Y005301D02*
X015639Y005301D01*
X015674Y005419D02*
X015146Y005419D01*
X015074Y005538D02*
X015746Y005538D01*
X015879Y005656D02*
X014941Y005656D01*
X014875Y005775D02*
X015945Y005775D01*
X015793Y005893D02*
X015027Y005893D01*
X015099Y006012D02*
X015721Y006012D01*
X015708Y006367D02*
X015112Y006367D01*
X015058Y006486D02*
X015762Y006486D01*
X015880Y006604D02*
X014940Y006604D01*
X014932Y006798D02*
X015067Y006933D01*
X015113Y007045D01*
X015707Y007045D01*
X015753Y006933D01*
X015888Y006798D01*
X016065Y006725D01*
X016255Y006725D01*
X016432Y006798D01*
X016567Y006933D01*
X016640Y007110D01*
X016640Y007300D01*
X016567Y007477D01*
X016432Y007612D01*
X016255Y007685D01*
X016065Y007685D01*
X015888Y007612D01*
X015753Y007477D01*
X015707Y007365D01*
X015113Y007365D01*
X015067Y007477D01*
X014932Y007612D01*
X014755Y007685D01*
X014565Y007685D01*
X014388Y007612D01*
X014253Y007477D01*
X014180Y007300D01*
X014180Y007110D01*
X014226Y006998D01*
X014090Y006861D01*
X014090Y006900D01*
X013955Y007035D01*
X013765Y007035D01*
X013717Y006987D01*
X013668Y006987D01*
X014453Y007771D01*
X014565Y007725D01*
X014755Y007725D01*
X014932Y007798D01*
X015067Y007933D01*
X015113Y008045D01*
X015707Y008045D01*
X015753Y007933D01*
X015888Y007798D01*
X016065Y007725D01*
X016255Y007725D01*
X016432Y007798D01*
X016567Y007933D01*
X016640Y008110D01*
X016640Y008300D01*
X016567Y008477D01*
X016432Y008612D01*
X016255Y008685D01*
X016065Y008685D01*
X015888Y008612D01*
X015753Y008477D01*
X015707Y008365D01*
X015113Y008365D01*
X015067Y008477D01*
X014932Y008612D01*
X014755Y008685D01*
X014565Y008685D01*
X014388Y008612D01*
X014253Y008477D01*
X014180Y008300D01*
X014180Y008110D01*
X014226Y007998D01*
X013616Y007388D01*
X013616Y007685D01*
X014026Y008095D01*
X014120Y008189D01*
X014120Y008439D01*
X014453Y008771D01*
X014565Y008725D01*
X014755Y008725D01*
X014932Y008798D01*
X015067Y008933D01*
X015113Y009045D01*
X015707Y009045D01*
X015753Y008933D01*
X015888Y008798D01*
X016065Y008725D01*
X016255Y008725D01*
X016432Y008798D01*
X016567Y008933D01*
X016640Y009110D01*
X016640Y009300D01*
X016567Y009477D01*
X016432Y009612D01*
X016255Y009685D01*
X016065Y009685D01*
X015888Y009612D01*
X015753Y009477D01*
X015707Y009365D01*
X015113Y009365D01*
X015067Y009477D01*
X014932Y009612D01*
X014755Y009685D01*
X014565Y009685D01*
X014388Y009612D01*
X014270Y009494D01*
X014270Y009589D01*
X014453Y009771D01*
X014565Y009725D01*
X014755Y009725D01*
X014932Y009798D01*
X015067Y009933D01*
X015113Y010045D01*
X015707Y010045D01*
X015753Y009933D01*
X015888Y009798D01*
X016065Y009725D01*
X016255Y009725D01*
X016432Y009798D01*
X016567Y009933D01*
X016640Y010110D01*
X016640Y010300D01*
X016567Y010477D01*
X016432Y010612D01*
X016255Y010685D01*
X016065Y010685D01*
X015888Y010612D01*
X015753Y010477D01*
X015707Y010365D01*
X015113Y010365D01*
X015067Y010477D01*
X014932Y010612D01*
X014755Y010685D01*
X014565Y010685D01*
X014388Y010612D01*
X014253Y010477D01*
X014180Y010300D01*
X014180Y010110D01*
X014226Y009998D01*
X013970Y009741D01*
X013970Y010289D01*
X014453Y010771D01*
X014565Y010725D01*
X014755Y010725D01*
X014932Y010798D01*
X015067Y010933D01*
X015113Y011045D01*
X015707Y011045D01*
X015753Y010933D01*
X015888Y010798D01*
X016065Y010725D01*
X016255Y010725D01*
X016432Y010798D01*
X016567Y010933D01*
X016640Y011110D01*
X016640Y011300D01*
X016567Y011477D01*
X016432Y011612D01*
X016255Y011685D01*
X016065Y011685D01*
X015888Y011612D01*
X015753Y011477D01*
X015707Y011365D01*
X015113Y011365D01*
X015067Y011477D01*
X014932Y011612D01*
X014755Y011685D01*
X014565Y011685D01*
X014388Y011612D01*
X014253Y011477D01*
X014180Y011300D01*
X014180Y011110D01*
X014226Y010998D01*
X013650Y010421D01*
X013650Y009349D01*
X013616Y009349D01*
X013616Y009471D01*
X013552Y009535D01*
X012673Y009535D01*
X012609Y009471D01*
X012609Y008907D01*
X012673Y008843D01*
X013552Y008843D01*
X013616Y008907D01*
X013616Y009029D01*
X013811Y009029D01*
X013876Y009095D01*
X013950Y009169D01*
X013950Y009071D01*
X013589Y008711D01*
X013552Y008748D01*
X012673Y008748D01*
X012609Y008684D01*
X012609Y008120D01*
X012673Y008056D01*
X013534Y008056D01*
X013439Y007961D01*
X012673Y007961D01*
X012609Y007896D01*
X012609Y007774D01*
X009553Y007774D01*
X009364Y007585D01*
X009265Y007585D01*
X009130Y007450D01*
X009130Y007260D01*
X009265Y007125D01*
X009455Y007125D01*
X009590Y007260D01*
X009590Y007359D01*
X009686Y007454D01*
X012609Y007454D01*
X012609Y007333D01*
X012673Y007268D01*
X013497Y007268D01*
X013402Y007173D01*
X012673Y007173D01*
X012609Y007109D01*
X012609Y006545D01*
X012673Y006481D01*
X013552Y006481D01*
X013616Y006545D01*
X013616Y006667D01*
X013673Y006667D01*
X013765Y006575D01*
X013804Y006575D01*
X013583Y006355D01*
X013552Y006386D01*
X012673Y006386D01*
X012609Y006321D01*
X012609Y006200D01*
X012578Y006200D01*
X012464Y006085D01*
X012365Y006085D01*
X012230Y005950D01*
X012230Y005760D01*
X012365Y005625D01*
X012555Y005625D01*
X012649Y005718D01*
X012673Y005693D01*
X013552Y005693D01*
X013616Y005758D01*
X013616Y005935D01*
X013655Y005973D01*
X014453Y006771D01*
X014565Y006725D01*
X014755Y006725D01*
X014932Y006798D01*
X014975Y006841D02*
X015845Y006841D01*
X015742Y006960D02*
X015078Y006960D01*
X015085Y007434D02*
X015735Y007434D01*
X015828Y007552D02*
X014992Y007552D01*
X014790Y007671D02*
X016030Y007671D01*
X015910Y007789D02*
X014910Y007789D01*
X015041Y007908D02*
X015779Y007908D01*
X015715Y008026D02*
X015105Y008026D01*
X015106Y008382D02*
X015714Y008382D01*
X015776Y008500D02*
X015044Y008500D01*
X014916Y008619D02*
X015904Y008619D01*
X016036Y008737D02*
X014784Y008737D01*
X014989Y008856D02*
X015831Y008856D01*
X015736Y008974D02*
X015084Y008974D01*
X015079Y009448D02*
X015741Y009448D01*
X015843Y009567D02*
X014977Y009567D01*
X014937Y009804D02*
X015883Y009804D01*
X015764Y009922D02*
X015056Y009922D01*
X015111Y010041D02*
X015709Y010041D01*
X015720Y010396D02*
X015100Y010396D01*
X015029Y010515D02*
X015791Y010515D01*
X015939Y010633D02*
X014881Y010633D01*
X014820Y010752D02*
X016000Y010752D01*
X015816Y010870D02*
X015004Y010870D01*
X015090Y010989D02*
X015730Y010989D01*
X015747Y011463D02*
X015073Y011463D01*
X014963Y011581D02*
X015857Y011581D01*
X015888Y011798D02*
X016065Y011725D01*
X016255Y011725D01*
X016432Y011798D01*
X016567Y011933D01*
X016640Y012110D01*
X016640Y012300D01*
X016567Y012477D01*
X016432Y012612D01*
X016255Y012685D01*
X016065Y012685D01*
X015888Y012612D01*
X015753Y012477D01*
X015707Y012365D01*
X015113Y012365D01*
X015067Y012477D01*
X014932Y012612D01*
X014755Y012685D01*
X014565Y012685D01*
X014388Y012612D01*
X014253Y012477D01*
X014180Y012300D01*
X014180Y012110D01*
X014226Y011998D01*
X013600Y011371D01*
X013600Y010871D01*
X013370Y010641D01*
X013370Y013348D01*
X013334Y013383D01*
X006986Y013383D01*
X006950Y013348D01*
X006950Y010641D01*
X006820Y010771D01*
X006820Y013389D01*
X006976Y013545D01*
X012976Y013545D01*
X013070Y013639D01*
X013226Y013795D01*
X013226Y013795D01*
X013320Y013889D01*
X013320Y014064D01*
X013422Y014064D01*
X013487Y014128D01*
X013487Y014613D01*
X013422Y014677D01*
X012898Y014677D01*
X012833Y014613D01*
X012833Y014185D01*
X012665Y014185D01*
X012595Y014115D01*
X011474Y014115D01*
X011487Y014128D01*
X011487Y014613D01*
X011422Y014677D01*
X010898Y014677D01*
X010836Y014615D01*
X010325Y014615D01*
X010255Y014685D01*
X010065Y014685D01*
X009930Y014550D01*
X009930Y014360D01*
X010065Y014225D01*
X010255Y014225D01*
X010325Y014295D01*
X010833Y014295D01*
X010833Y014128D01*
X010846Y014115D01*
X009474Y014115D01*
X009487Y014128D01*
X009487Y014613D01*
X009422Y014677D01*
X008898Y014677D01*
X008836Y014615D01*
X008325Y014615D01*
X008255Y014685D01*
X008065Y014685D01*
X007930Y014550D01*
X007930Y014360D01*
X008065Y014225D01*
X008255Y014225D01*
X008325Y014295D01*
X008833Y014295D01*
X008833Y014128D01*
X008846Y014115D01*
X008040Y014115D01*
X008040Y014200D01*
X007905Y014335D01*
X007715Y014335D01*
X007580Y014200D01*
X007580Y014010D01*
X007715Y013875D01*
X007814Y013875D01*
X007824Y013865D01*
X006844Y013865D01*
X006750Y013771D01*
X006500Y013521D01*
X006500Y011591D01*
X006094Y011998D01*
X006140Y012110D01*
X006140Y012300D01*
X006067Y012477D01*
X005932Y012612D01*
X005755Y012685D01*
X005565Y012685D01*
X005388Y012612D01*
X005253Y012477D01*
X005207Y012365D01*
X004613Y012365D01*
X004567Y012477D01*
X004432Y012612D01*
X004255Y012685D01*
X004065Y012685D01*
X003888Y012612D01*
X003753Y012477D01*
X003707Y012365D01*
X002175Y012365D01*
X002105Y012435D01*
X001915Y012435D01*
X001780Y012300D01*
X001780Y012110D01*
X001915Y011975D01*
X002105Y011975D01*
X002175Y012045D01*
X003707Y012045D01*
X003753Y011933D01*
X003888Y011798D01*
X004065Y011725D01*
X004255Y011725D01*
X004432Y011798D01*
X004567Y011933D01*
X004613Y012045D01*
X005207Y012045D01*
X005253Y011933D01*
X005388Y011798D01*
X005565Y011725D01*
X005755Y011725D01*
X005867Y011771D01*
X006500Y011139D01*
X006500Y010639D01*
X006594Y010545D01*
X006816Y010323D01*
X006768Y010323D01*
X006704Y010258D01*
X006704Y009695D01*
X006768Y009630D01*
X007647Y009630D01*
X007711Y009695D01*
X007711Y010258D01*
X007647Y010323D01*
X007268Y010323D01*
X007084Y010507D01*
X013236Y010507D01*
X013052Y010323D01*
X012673Y010323D01*
X012609Y010258D01*
X012609Y009695D01*
X012673Y009630D01*
X013552Y009630D01*
X013616Y009695D01*
X013616Y010258D01*
X013552Y010323D01*
X013504Y010323D01*
X013826Y010645D01*
X013920Y010739D01*
X013920Y011239D01*
X014453Y011771D01*
X014565Y011725D01*
X014755Y011725D01*
X014932Y011798D01*
X015067Y011933D01*
X015113Y012045D01*
X015707Y012045D01*
X015753Y011933D01*
X015888Y011798D01*
X015868Y011818D02*
X014952Y011818D01*
X015068Y011937D02*
X015752Y011937D01*
X015726Y012411D02*
X015094Y012411D01*
X015015Y012529D02*
X015805Y012529D01*
X015974Y012648D02*
X014846Y012648D01*
X014474Y012648D02*
X013370Y012648D01*
X013370Y012766D02*
X019685Y012766D01*
X019685Y012648D02*
X016346Y012648D01*
X016515Y012529D02*
X019685Y012529D01*
X019685Y012411D02*
X016594Y012411D01*
X016640Y012292D02*
X019685Y012292D01*
X019685Y012174D02*
X016640Y012174D01*
X016617Y012055D02*
X019685Y012055D01*
X019685Y011937D02*
X016568Y011937D01*
X016452Y011818D02*
X019685Y011818D01*
X019685Y011700D02*
X014381Y011700D01*
X014357Y011581D02*
X014262Y011581D01*
X014247Y011463D02*
X014144Y011463D01*
X014198Y011344D02*
X014025Y011344D01*
X013920Y011226D02*
X014180Y011226D01*
X014181Y011107D02*
X013920Y011107D01*
X013920Y010989D02*
X014217Y010989D01*
X014099Y010870D02*
X013920Y010870D01*
X013920Y010752D02*
X013980Y010752D01*
X013862Y010633D02*
X013814Y010633D01*
X013743Y010515D02*
X013696Y010515D01*
X013650Y010396D02*
X013577Y010396D01*
X013597Y010278D02*
X013650Y010278D01*
X013650Y010159D02*
X013616Y010159D01*
X013616Y010041D02*
X013650Y010041D01*
X013650Y009922D02*
X013616Y009922D01*
X013616Y009804D02*
X013650Y009804D01*
X013650Y009685D02*
X013607Y009685D01*
X013650Y009567D02*
X006670Y009567D01*
X006704Y009471D02*
X006704Y009349D01*
X006670Y009349D01*
X006670Y010421D01*
X006094Y010998D01*
X006140Y011110D01*
X006140Y011300D01*
X006067Y011477D01*
X005932Y011612D01*
X005755Y011685D01*
X005565Y011685D01*
X005388Y011612D01*
X005253Y011477D01*
X005207Y011365D01*
X004613Y011365D01*
X004567Y011477D01*
X004432Y011612D01*
X004255Y011685D01*
X004065Y011685D01*
X003888Y011612D01*
X003753Y011477D01*
X003707Y011365D01*
X003140Y011365D01*
X003140Y011450D01*
X003005Y011585D01*
X002815Y011585D01*
X002680Y011450D01*
X002680Y011260D01*
X002815Y011125D01*
X002914Y011125D01*
X002994Y011045D01*
X003707Y011045D01*
X003753Y010933D01*
X003888Y010798D01*
X004065Y010725D01*
X004255Y010725D01*
X004432Y010798D01*
X004567Y010933D01*
X004613Y011045D01*
X005207Y011045D01*
X005253Y010933D01*
X005388Y010798D01*
X005565Y010725D01*
X005755Y010725D01*
X005867Y010771D01*
X006350Y010289D01*
X006350Y009741D01*
X006094Y009998D01*
X006140Y010110D01*
X006140Y010300D01*
X006067Y010477D01*
X005932Y010612D01*
X005755Y010685D01*
X005565Y010685D01*
X005388Y010612D01*
X005253Y010477D01*
X005207Y010365D01*
X004613Y010365D01*
X004567Y010477D01*
X004432Y010612D01*
X004255Y010685D01*
X004065Y010685D01*
X003888Y010612D01*
X003753Y010477D01*
X003680Y010300D01*
X003680Y010110D01*
X003753Y009933D01*
X003888Y009798D01*
X004065Y009725D01*
X004255Y009725D01*
X004432Y009798D01*
X004567Y009933D01*
X004613Y010045D01*
X005207Y010045D01*
X005253Y009933D01*
X005388Y009798D01*
X005565Y009725D01*
X005755Y009725D01*
X005867Y009771D01*
X006050Y009589D01*
X006050Y009494D01*
X005932Y009612D01*
X005755Y009685D01*
X005565Y009685D01*
X005388Y009612D01*
X005253Y009477D01*
X005207Y009365D01*
X004613Y009365D01*
X004567Y009477D01*
X004432Y009612D01*
X004255Y009685D01*
X004065Y009685D01*
X003888Y009612D01*
X003753Y009477D01*
X003680Y009300D01*
X003680Y009110D01*
X003753Y008933D01*
X003888Y008798D01*
X004065Y008725D01*
X004255Y008725D01*
X004432Y008798D01*
X004567Y008933D01*
X004613Y009045D01*
X005207Y009045D01*
X005253Y008933D01*
X005388Y008798D01*
X005565Y008725D01*
X005755Y008725D01*
X005867Y008771D01*
X006250Y008389D01*
X006250Y008139D01*
X006344Y008045D01*
X006594Y007795D01*
X006704Y007685D01*
X006704Y007388D01*
X006094Y007998D01*
X006140Y008110D01*
X006140Y008300D01*
X006067Y008477D01*
X005932Y008612D01*
X005755Y008685D01*
X005565Y008685D01*
X005388Y008612D01*
X005253Y008477D01*
X005207Y008365D01*
X004613Y008365D01*
X004567Y008477D01*
X004432Y008612D01*
X004255Y008685D01*
X004065Y008685D01*
X003888Y008612D01*
X003753Y008477D01*
X003680Y008300D01*
X003680Y008110D01*
X003753Y007933D01*
X003888Y007798D01*
X004065Y007725D01*
X004255Y007725D01*
X004432Y007798D01*
X004567Y007933D01*
X004613Y008045D01*
X005207Y008045D01*
X005253Y007933D01*
X005388Y007798D01*
X005565Y007725D01*
X005755Y007725D01*
X005867Y007771D01*
X006704Y006935D01*
X006704Y006545D01*
X006768Y006481D01*
X007647Y006481D01*
X007711Y006545D01*
X007711Y006667D01*
X009430Y006667D01*
X009430Y006610D01*
X009565Y006475D01*
X009755Y006475D01*
X009890Y006610D01*
X009890Y006800D01*
X009755Y006935D01*
X009656Y006935D01*
X009604Y006987D01*
X007711Y006987D01*
X007711Y007109D01*
X007647Y007173D01*
X006918Y007173D01*
X006823Y007268D01*
X007647Y007268D01*
X007711Y007333D01*
X007711Y007896D01*
X007647Y007961D01*
X006881Y007961D01*
X006820Y008021D01*
X006786Y008056D01*
X007647Y008056D01*
X007711Y008120D01*
X007711Y008684D01*
X007647Y008748D01*
X006768Y008748D01*
X006756Y008736D01*
X006620Y008871D01*
X006370Y009121D01*
X006370Y009169D01*
X006444Y009095D01*
X006509Y009029D01*
X006704Y009029D01*
X006704Y008907D01*
X006768Y008843D01*
X007647Y008843D01*
X007711Y008907D01*
X007711Y009471D01*
X007647Y009535D01*
X006768Y009535D01*
X006704Y009471D01*
X006704Y009448D02*
X006670Y009448D01*
X006670Y009685D02*
X006713Y009685D01*
X006704Y009804D02*
X006670Y009804D01*
X006670Y009922D02*
X006704Y009922D01*
X006704Y010041D02*
X006670Y010041D01*
X006670Y010159D02*
X006704Y010159D01*
X006723Y010278D02*
X006670Y010278D01*
X006670Y010396D02*
X006743Y010396D01*
X006624Y010515D02*
X006577Y010515D01*
X006506Y010633D02*
X006458Y010633D01*
X006500Y010752D02*
X006340Y010752D01*
X006221Y010870D02*
X006500Y010870D01*
X006500Y010989D02*
X006103Y010989D01*
X006139Y011107D02*
X006500Y011107D01*
X006413Y011226D02*
X006140Y011226D01*
X006122Y011344D02*
X006295Y011344D01*
X006176Y011463D02*
X006073Y011463D01*
X006058Y011581D02*
X005963Y011581D01*
X005939Y011700D02*
X000320Y011700D01*
X000320Y011818D02*
X003868Y011818D01*
X003752Y011937D02*
X000320Y011937D01*
X000320Y012055D02*
X001835Y012055D01*
X001780Y012174D02*
X000320Y012174D01*
X000320Y012292D02*
X001780Y012292D01*
X001890Y012411D02*
X000320Y012411D01*
X000320Y012529D02*
X002540Y012529D01*
X002544Y012512D02*
X002565Y012475D01*
X002595Y012445D01*
X002632Y012424D01*
X002672Y012414D01*
X002872Y012414D01*
X002872Y012732D01*
X002948Y012732D01*
X002948Y012414D01*
X003148Y012414D01*
X003188Y012424D01*
X003225Y012445D01*
X003255Y012475D01*
X003276Y012512D01*
X003287Y012552D01*
X003287Y012732D01*
X002948Y012732D01*
X002948Y012809D01*
X002872Y012809D01*
X002872Y013127D01*
X002672Y013127D01*
X002632Y013116D01*
X002595Y013095D01*
X002565Y013065D01*
X002544Y013029D01*
X002533Y012988D01*
X002533Y012809D01*
X002872Y012809D01*
X002872Y012732D01*
X002533Y012732D01*
X002533Y012552D01*
X002544Y012512D01*
X002533Y012648D02*
X000320Y012648D01*
X000320Y012766D02*
X002872Y012766D01*
X002948Y012766D02*
X006500Y012766D01*
X006500Y012648D02*
X005846Y012648D01*
X006015Y012529D02*
X006500Y012529D01*
X006500Y012411D02*
X006094Y012411D01*
X006140Y012292D02*
X006500Y012292D01*
X006500Y012174D02*
X006140Y012174D01*
X006117Y012055D02*
X006500Y012055D01*
X006500Y011937D02*
X006155Y011937D01*
X006273Y011818D02*
X006500Y011818D01*
X006500Y011700D02*
X006392Y011700D01*
X006820Y011700D02*
X006950Y011700D01*
X006950Y011818D02*
X006820Y011818D01*
X006820Y011937D02*
X006950Y011937D01*
X006950Y012055D02*
X006820Y012055D01*
X006820Y012174D02*
X006950Y012174D01*
X006950Y012292D02*
X006820Y012292D01*
X006820Y012411D02*
X006950Y012411D01*
X006950Y012529D02*
X006820Y012529D01*
X006820Y012648D02*
X006950Y012648D01*
X006950Y012766D02*
X006820Y012766D01*
X006820Y012885D02*
X006950Y012885D01*
X006950Y013003D02*
X006820Y013003D01*
X006820Y013122D02*
X006950Y013122D01*
X006950Y013240D02*
X006820Y013240D01*
X006820Y013359D02*
X006961Y013359D01*
X006908Y013477D02*
X013900Y013477D01*
X013900Y013531D02*
X013900Y013245D01*
X013941Y013204D01*
X013900Y013163D01*
X013900Y013047D01*
X014070Y012877D01*
X014152Y012795D01*
X014268Y012795D01*
X014350Y012877D01*
X014350Y012965D01*
X014438Y012965D01*
X014520Y013047D01*
X014520Y013163D01*
X014479Y013204D01*
X014520Y013245D01*
X014520Y013531D01*
X014479Y013573D01*
X014520Y013614D01*
X014520Y013730D01*
X014465Y013785D01*
X014520Y013840D01*
X014520Y013956D01*
X014507Y013969D01*
X014520Y013982D01*
X014520Y014268D01*
X014463Y014325D01*
X014381Y014407D01*
X014038Y014407D01*
X013982Y014350D01*
X013900Y014268D01*
X013900Y013982D01*
X013969Y013913D01*
X013900Y013843D01*
X013900Y013727D01*
X013982Y013645D01*
X013998Y013629D01*
X013982Y013613D01*
X013900Y013531D01*
X013964Y013596D02*
X013027Y013596D01*
X013070Y013639D02*
X013070Y013639D01*
X013145Y013714D02*
X013913Y013714D01*
X013900Y013833D02*
X013264Y013833D01*
X013320Y013951D02*
X013931Y013951D01*
X013900Y014070D02*
X013428Y014070D01*
X013487Y014188D02*
X013900Y014188D01*
X013938Y014307D02*
X013487Y014307D01*
X013487Y014425D02*
X015340Y014425D01*
X015322Y014407D02*
X015387Y014472D01*
X015389Y014472D01*
X015389Y014700D01*
X014665Y015425D01*
X014615Y015475D01*
X014575Y015515D01*
X013347Y015515D01*
X013218Y015644D01*
X012918Y015644D01*
X012853Y015708D01*
X012853Y015780D01*
X012166Y015780D01*
X012011Y015935D01*
X011584Y015935D01*
X011520Y015999D01*
X011520Y016971D01*
X011584Y017035D01*
X011680Y017035D01*
X011680Y017165D01*
X001239Y017165D01*
X001150Y017076D01*
X001150Y014797D01*
X001205Y014743D01*
X001258Y014615D01*
X001258Y014476D01*
X001205Y014349D01*
X001107Y014251D01*
X001106Y014250D01*
X001107Y014250D01*
X001205Y014152D01*
X001220Y014115D01*
X002094Y014115D01*
X002250Y014271D01*
X002250Y014871D01*
X002344Y014965D01*
X002583Y015205D01*
X002583Y015332D01*
X002648Y015396D01*
X003172Y015396D01*
X003237Y015332D01*
X003237Y014847D01*
X003172Y014783D01*
X002648Y014783D01*
X002631Y014800D01*
X002570Y014739D01*
X002570Y014139D01*
X002320Y013889D01*
X002226Y013795D01*
X001220Y013795D01*
X001205Y013758D01*
X001138Y013691D01*
X001164Y013673D01*
X001219Y013618D01*
X001263Y013553D01*
X001293Y013480D01*
X001308Y013404D01*
X001308Y013373D01*
X000919Y013373D01*
X000919Y013356D01*
X001308Y013356D01*
X001308Y013325D01*
X001293Y013248D01*
X001263Y013176D01*
X001219Y013111D01*
X001164Y013055D01*
X001098Y013012D01*
X001026Y012982D01*
X000949Y012967D01*
X000919Y012967D01*
X000919Y013356D01*
X000901Y013356D01*
X000512Y013356D01*
X000512Y013325D01*
X000527Y013248D01*
X000557Y013176D01*
X000601Y013111D01*
X000656Y013055D01*
X000722Y013012D01*
X000794Y012982D01*
X000871Y012967D01*
X000901Y012967D01*
X000901Y013356D01*
X000901Y013373D01*
X000512Y013373D01*
X000512Y013404D01*
X000527Y013480D01*
X000557Y013553D01*
X000601Y013618D01*
X000656Y013673D01*
X000682Y013691D01*
X000615Y013758D01*
X000562Y013886D01*
X000562Y014024D01*
X000615Y014152D01*
X000713Y014250D01*
X000714Y014250D01*
X000713Y014251D01*
X000615Y014349D01*
X000562Y014476D01*
X000562Y014615D01*
X000615Y014743D01*
X000713Y014840D01*
X000770Y014864D01*
X000770Y017234D01*
X000881Y017345D01*
X001081Y017545D01*
X011839Y017545D01*
X011950Y017434D01*
X012060Y017324D01*
X012060Y017035D01*
X012156Y017035D01*
X012220Y016971D01*
X012220Y016264D01*
X012323Y016160D01*
X012853Y016160D01*
X012853Y016232D01*
X012897Y016276D01*
X012865Y016295D01*
X012835Y016325D01*
X012814Y016361D01*
X012803Y016402D01*
X012803Y016601D01*
X013122Y016601D01*
X013122Y016678D01*
X013122Y017016D01*
X012942Y017016D01*
X012901Y017005D01*
X012865Y016984D01*
X012835Y016954D01*
X012814Y016918D01*
X012803Y016877D01*
X012803Y016678D01*
X013122Y016678D01*
X013198Y016678D01*
X013198Y017016D01*
X013378Y017016D01*
X013419Y017005D01*
X013455Y016984D01*
X013485Y016954D01*
X013506Y016918D01*
X013517Y016877D01*
X013517Y016678D01*
X013198Y016678D01*
X013198Y016601D01*
X013517Y016601D01*
X013517Y016402D01*
X013506Y016361D01*
X013485Y016325D01*
X013455Y016295D01*
X013423Y016276D01*
X013467Y016232D01*
X013467Y015932D01*
X013504Y015895D01*
X014575Y015895D01*
X014665Y015985D01*
X014588Y015946D01*
X014505Y015919D01*
X014419Y015906D01*
X014414Y015906D01*
X014414Y016815D01*
X014414Y016891D01*
X014929Y016891D01*
X014929Y017290D01*
X014916Y017376D01*
X014889Y017459D01*
X014849Y017537D01*
X014798Y017607D01*
X014736Y017669D01*
X014666Y017720D01*
X014588Y017760D01*
X014505Y017787D01*
X014419Y017800D01*
X014414Y017800D01*
X014414Y016891D01*
X014337Y016891D01*
X014337Y016815D01*
X013822Y016815D01*
X013822Y016416D01*
X013836Y016330D01*
X013863Y016247D01*
X013902Y016169D01*
X013953Y016099D01*
X014015Y016037D01*
X014086Y015986D01*
X014163Y015946D01*
X014246Y015919D01*
X014332Y015906D01*
X014337Y015906D01*
X014337Y016815D01*
X014414Y016815D01*
X014929Y016815D01*
X014929Y016416D01*
X014916Y016330D01*
X014889Y016247D01*
X014850Y016170D01*
X015765Y017085D01*
X015955Y017085D01*
X016090Y016950D01*
X016090Y016760D01*
X015035Y015705D01*
X015849Y014891D01*
X015849Y014472D01*
X015852Y014472D01*
X015916Y014407D01*
X015916Y013903D01*
X015852Y013838D01*
X015387Y013838D01*
X015322Y013903D01*
X015322Y014407D01*
X015322Y014307D02*
X014482Y014307D01*
X014520Y014188D02*
X015322Y014188D01*
X015322Y014070D02*
X014520Y014070D01*
X014520Y013951D02*
X015322Y013951D01*
X015916Y013951D02*
X016543Y013951D01*
X016543Y013903D02*
X016607Y013838D01*
X017072Y013838D01*
X017137Y013903D01*
X017137Y014407D01*
X017090Y014454D01*
X017090Y015050D01*
X016955Y015185D01*
X016933Y015207D01*
X017023Y015245D01*
X017165Y015387D01*
X017242Y015572D01*
X017242Y015761D01*
X017405Y015925D01*
X017540Y016060D01*
X017540Y016250D01*
X017405Y016385D01*
X017215Y016385D01*
X017080Y016250D01*
X016956Y016127D01*
X016838Y016176D01*
X015850Y016176D01*
X015665Y016099D01*
X015524Y015957D01*
X015447Y015772D01*
X015447Y015572D01*
X015524Y015387D01*
X015665Y015245D01*
X015850Y015168D01*
X016322Y015168D01*
X016630Y014860D01*
X016630Y014472D01*
X016607Y014472D01*
X016543Y014407D01*
X016543Y013903D01*
X016543Y014070D02*
X015916Y014070D01*
X015916Y014188D02*
X016543Y014188D01*
X016543Y014307D02*
X015916Y014307D01*
X015899Y014425D02*
X016561Y014425D01*
X016630Y014544D02*
X015849Y014544D01*
X015849Y014662D02*
X016630Y014662D01*
X016630Y014781D02*
X015849Y014781D01*
X015841Y014899D02*
X016591Y014899D01*
X016472Y015018D02*
X015723Y015018D01*
X015604Y015136D02*
X016354Y015136D01*
X017004Y015136D02*
X019685Y015136D01*
X019685Y015018D02*
X017090Y015018D01*
X017090Y014899D02*
X019685Y014899D01*
X019685Y014781D02*
X017090Y014781D01*
X017090Y014662D02*
X019685Y014662D01*
X019685Y014544D02*
X017090Y014544D01*
X017119Y014425D02*
X019685Y014425D01*
X019685Y014307D02*
X017137Y014307D01*
X017137Y014188D02*
X019685Y014188D01*
X019685Y014070D02*
X017137Y014070D01*
X017137Y013951D02*
X019685Y013951D01*
X019685Y013833D02*
X014512Y013833D01*
X014520Y013714D02*
X019685Y013714D01*
X019685Y013596D02*
X014502Y013596D01*
X014520Y013477D02*
X019685Y013477D01*
X019685Y013359D02*
X014520Y013359D01*
X014515Y013240D02*
X019685Y013240D01*
X019685Y013122D02*
X014520Y013122D01*
X014476Y013003D02*
X019685Y013003D01*
X019685Y012885D02*
X014350Y012885D01*
X014062Y012885D02*
X013370Y012885D01*
X013370Y013003D02*
X013944Y013003D01*
X013900Y013122D02*
X013370Y013122D01*
X013370Y013240D02*
X013905Y013240D01*
X013900Y013359D02*
X013359Y013359D01*
X012833Y014188D02*
X011487Y014188D01*
X011487Y014307D02*
X012833Y014307D01*
X012833Y014425D02*
X011487Y014425D01*
X011487Y014544D02*
X012833Y014544D01*
X012883Y014662D02*
X011437Y014662D01*
X011422Y014733D02*
X011487Y014797D01*
X011487Y014850D01*
X012833Y014850D01*
X012833Y014797D01*
X012898Y014733D01*
X013422Y014733D01*
X013487Y014797D01*
X013487Y015282D01*
X013422Y015346D01*
X012898Y015346D01*
X012833Y015282D01*
X012833Y015230D01*
X011487Y015230D01*
X011487Y015282D01*
X011422Y015346D01*
X011150Y015346D01*
X011150Y015935D01*
X011246Y015935D01*
X011310Y015999D01*
X011310Y016971D01*
X011246Y017035D01*
X010674Y017035D01*
X010610Y016971D01*
X010610Y015999D01*
X010674Y015935D01*
X010770Y015935D01*
X010770Y015230D01*
X009487Y015230D01*
X009487Y015282D01*
X009422Y015346D01*
X008898Y015346D01*
X008833Y015282D01*
X008833Y015230D01*
X007487Y015230D01*
X007487Y015282D01*
X007422Y015346D01*
X006898Y015346D01*
X006833Y015282D01*
X006833Y015230D01*
X006716Y015230D01*
X006621Y015135D01*
X006565Y015135D01*
X006525Y015095D01*
X005831Y015095D01*
X005421Y014685D01*
X005254Y014685D01*
X005190Y014621D01*
X005190Y014375D01*
X005130Y014375D01*
X005130Y014621D01*
X005070Y014681D01*
X005070Y015021D01*
X004976Y015115D01*
X004866Y015225D01*
X005005Y015225D01*
X005140Y015360D01*
X005140Y015550D01*
X005070Y015620D01*
X005070Y015629D01*
X005130Y015689D01*
X005130Y016561D01*
X005066Y016625D01*
X004754Y016625D01*
X004690Y016561D01*
X004690Y015689D01*
X004750Y015629D01*
X004750Y015620D01*
X004680Y015550D01*
X004680Y015411D01*
X004570Y015521D01*
X004570Y015629D01*
X004630Y015689D01*
X004630Y016561D01*
X004566Y016625D01*
X004254Y016625D01*
X004190Y016561D01*
X004190Y015689D01*
X004250Y015629D01*
X004250Y015389D01*
X004750Y014889D01*
X004750Y014681D01*
X004690Y014621D01*
X004690Y013749D01*
X004754Y013685D01*
X005066Y013685D01*
X005130Y013749D01*
X005130Y013995D01*
X005190Y013995D01*
X005190Y013749D01*
X005220Y013719D01*
X005220Y013676D01*
X005331Y013565D01*
X005334Y013562D01*
X005283Y013562D01*
X005239Y013518D01*
X005220Y013550D01*
X005190Y013580D01*
X005154Y013601D01*
X005113Y013612D01*
X004914Y013612D01*
X004914Y013293D01*
X004837Y013293D01*
X004837Y013217D01*
X004499Y013217D01*
X004499Y013037D01*
X004510Y012996D01*
X004531Y012960D01*
X004561Y012930D01*
X004597Y012909D01*
X004638Y012898D01*
X004837Y012898D01*
X004837Y013217D01*
X004914Y013217D01*
X004914Y012898D01*
X005113Y012898D01*
X005154Y012909D01*
X005190Y012930D01*
X005220Y012960D01*
X005239Y012992D01*
X005283Y012948D01*
X005807Y012948D01*
X005871Y013013D01*
X005871Y013497D01*
X005807Y013562D01*
X005735Y013562D01*
X005735Y013699D01*
X005630Y013804D01*
X005630Y014356D01*
X005989Y014715D01*
X006525Y014715D01*
X006565Y014675D01*
X006755Y014675D01*
X006855Y014775D01*
X006898Y014733D01*
X007422Y014733D01*
X007487Y014797D01*
X007487Y014850D01*
X008833Y014850D01*
X008833Y014797D01*
X008898Y014733D01*
X009422Y014733D01*
X009487Y014797D01*
X009487Y014850D01*
X010833Y014850D01*
X010833Y014797D01*
X010898Y014733D01*
X011422Y014733D01*
X011470Y014781D02*
X012850Y014781D01*
X012833Y015255D02*
X011487Y015255D01*
X011150Y015373D02*
X014717Y015373D01*
X014835Y015255D02*
X013487Y015255D01*
X013487Y015136D02*
X014954Y015136D01*
X015072Y015018D02*
X013487Y015018D01*
X013487Y014899D02*
X015191Y014899D01*
X015309Y014781D02*
X013470Y014781D01*
X013437Y014662D02*
X015389Y014662D01*
X015389Y014544D02*
X013487Y014544D01*
X013252Y015610D02*
X011150Y015610D01*
X011150Y015492D02*
X014598Y015492D01*
X014626Y015966D02*
X014645Y015966D01*
X014866Y016203D02*
X014882Y016203D01*
X014913Y016321D02*
X015001Y016321D01*
X014929Y016440D02*
X015119Y016440D01*
X015238Y016558D02*
X014929Y016558D01*
X014929Y016677D02*
X015356Y016677D01*
X015475Y016795D02*
X014929Y016795D01*
X014929Y016914D02*
X015593Y016914D01*
X015712Y017032D02*
X014929Y017032D01*
X014929Y017151D02*
X019685Y017151D01*
X019685Y017269D02*
X014929Y017269D01*
X014912Y017388D02*
X019685Y017388D01*
X019685Y017506D02*
X014865Y017506D01*
X014781Y017625D02*
X015783Y017625D01*
X015821Y017612D02*
X015738Y017639D01*
X015660Y017679D01*
X015590Y017730D01*
X015528Y017792D01*
X015477Y017862D01*
X015437Y017940D01*
X015410Y018023D01*
X015397Y018109D01*
X015397Y018114D01*
X016306Y018114D01*
X016383Y018114D01*
X016383Y018191D01*
X016306Y018191D01*
X016306Y018706D01*
X015907Y018706D01*
X015821Y018692D01*
X015738Y018665D01*
X015660Y018626D01*
X015590Y018575D01*
X015528Y018513D01*
X015477Y018442D01*
X015437Y018365D01*
X015410Y018282D01*
X015397Y018196D01*
X015397Y018191D01*
X016306Y018191D01*
X016306Y018114D01*
X016306Y017599D01*
X015907Y017599D01*
X015821Y017612D01*
X015577Y017743D02*
X014621Y017743D01*
X014414Y017743D02*
X014337Y017743D01*
X014337Y017800D02*
X014332Y017800D01*
X014246Y017787D01*
X014163Y017760D01*
X014086Y017720D01*
X014015Y017669D01*
X013953Y017607D01*
X013902Y017537D01*
X013863Y017459D01*
X013836Y017376D01*
X013822Y017290D01*
X013822Y016891D01*
X014337Y016891D01*
X014337Y017800D01*
X014337Y017625D02*
X014414Y017625D01*
X014414Y017506D02*
X014337Y017506D01*
X014337Y017388D02*
X014414Y017388D01*
X014414Y017269D02*
X014337Y017269D01*
X014337Y017151D02*
X014414Y017151D01*
X014414Y017032D02*
X014337Y017032D01*
X014337Y016914D02*
X014414Y016914D01*
X014414Y016795D02*
X014337Y016795D01*
X014337Y016677D02*
X014414Y016677D01*
X014414Y016558D02*
X014337Y016558D01*
X014337Y016440D02*
X014414Y016440D01*
X014414Y016321D02*
X014337Y016321D01*
X014337Y016203D02*
X014414Y016203D01*
X014414Y016084D02*
X014337Y016084D01*
X014337Y015966D02*
X014414Y015966D01*
X014125Y015966D02*
X013467Y015966D01*
X013467Y016084D02*
X013968Y016084D01*
X013885Y016203D02*
X013467Y016203D01*
X013481Y016321D02*
X013838Y016321D01*
X013822Y016440D02*
X013517Y016440D01*
X013517Y016558D02*
X013822Y016558D01*
X013822Y016677D02*
X013198Y016677D01*
X013122Y016677D02*
X012220Y016677D01*
X012220Y016795D02*
X012803Y016795D01*
X012813Y016914D02*
X012220Y016914D01*
X012159Y017032D02*
X013822Y017032D01*
X013822Y016914D02*
X013507Y016914D01*
X013517Y016795D02*
X013822Y016795D01*
X013822Y017151D02*
X012060Y017151D01*
X012060Y017269D02*
X013822Y017269D01*
X013839Y017388D02*
X011996Y017388D01*
X011878Y017506D02*
X013886Y017506D01*
X013971Y017625D02*
X013755Y017625D01*
X013790Y017743D02*
X014130Y017743D01*
X013779Y017862D02*
X015477Y017862D01*
X015424Y017980D02*
X015360Y017980D01*
X015390Y018099D02*
X015398Y018099D01*
X015400Y018217D02*
X015373Y018217D01*
X015428Y018336D02*
X013416Y018336D01*
X013490Y018454D02*
X015485Y018454D01*
X015588Y018573D02*
X013490Y018573D01*
X013490Y018691D02*
X015817Y018691D01*
X016306Y018691D02*
X016383Y018691D01*
X016383Y018706D02*
X016383Y018191D01*
X017292Y018191D01*
X017292Y018196D01*
X017278Y018282D01*
X017251Y018365D01*
X017212Y018442D01*
X017160Y018513D01*
X017099Y018575D01*
X017028Y018626D01*
X016950Y018665D01*
X016868Y018692D01*
X016782Y018706D01*
X016383Y018706D01*
X016383Y018573D02*
X016306Y018573D01*
X016306Y018454D02*
X016383Y018454D01*
X016383Y018336D02*
X016306Y018336D01*
X016306Y018217D02*
X016383Y018217D01*
X016383Y018114D02*
X017292Y018114D01*
X017292Y018109D01*
X017278Y018023D01*
X017251Y017940D01*
X017212Y017862D01*
X017160Y017792D01*
X017099Y017730D01*
X017028Y017679D01*
X016950Y017639D01*
X016868Y017612D01*
X016782Y017599D01*
X016383Y017599D01*
X016383Y018114D01*
X016383Y018099D02*
X016306Y018099D01*
X016306Y017980D02*
X016383Y017980D01*
X016383Y017862D02*
X016306Y017862D01*
X016306Y017743D02*
X016383Y017743D01*
X016383Y017625D02*
X016306Y017625D01*
X016906Y017625D02*
X019685Y017625D01*
X019685Y017743D02*
X017112Y017743D01*
X017211Y017862D02*
X019685Y017862D01*
X019685Y017980D02*
X017264Y017980D01*
X017290Y018099D02*
X019685Y018099D01*
X019685Y018217D02*
X017288Y018217D01*
X017261Y018336D02*
X019685Y018336D01*
X019685Y018454D02*
X019192Y018454D01*
X019171Y018433D02*
X018968Y018349D01*
X018747Y018349D01*
X018544Y018433D01*
X018388Y018589D01*
X018304Y018792D01*
X018304Y019013D01*
X018388Y019216D01*
X018544Y019372D01*
X018747Y019456D01*
X018968Y019456D01*
X019171Y019372D01*
X019327Y019216D01*
X019411Y019013D01*
X019411Y018792D01*
X019327Y018589D01*
X019171Y018433D01*
X019311Y018573D02*
X019685Y018573D01*
X019685Y018691D02*
X019369Y018691D01*
X019411Y018810D02*
X019685Y018810D01*
X019685Y018928D02*
X019411Y018928D01*
X019397Y019047D02*
X019685Y019047D01*
X019680Y019165D02*
X019348Y019165D01*
X019260Y019284D02*
X019650Y019284D01*
X019606Y019402D02*
X019099Y019402D01*
X019374Y019639D02*
X013490Y019639D01*
X013490Y019521D02*
X019520Y019521D01*
X018616Y019402D02*
X013490Y019402D01*
X013490Y019284D02*
X018455Y019284D01*
X018367Y019165D02*
X013490Y019165D01*
X013490Y019047D02*
X018318Y019047D01*
X018304Y018928D02*
X013490Y018928D01*
X013490Y018810D02*
X018304Y018810D01*
X018346Y018691D02*
X016872Y018691D01*
X017101Y018573D02*
X018405Y018573D01*
X018523Y018454D02*
X017203Y018454D01*
X016008Y017032D02*
X019685Y017032D01*
X019685Y016914D02*
X016090Y016914D01*
X016090Y016795D02*
X019685Y016795D01*
X019685Y016677D02*
X016007Y016677D01*
X015888Y016558D02*
X019685Y016558D01*
X019685Y016440D02*
X015770Y016440D01*
X015651Y016321D02*
X017151Y016321D01*
X017032Y016203D02*
X015533Y016203D01*
X015650Y016084D02*
X015414Y016084D01*
X015296Y015966D02*
X015532Y015966D01*
X015478Y015847D02*
X015177Y015847D01*
X015059Y015729D02*
X015447Y015729D01*
X015447Y015610D02*
X015130Y015610D01*
X015249Y015492D02*
X015480Y015492D01*
X015537Y015373D02*
X015367Y015373D01*
X015486Y015255D02*
X015656Y015255D01*
X017033Y015255D02*
X019685Y015255D01*
X019685Y015373D02*
X017151Y015373D01*
X017208Y015492D02*
X019685Y015492D01*
X019685Y015610D02*
X017242Y015610D01*
X017242Y015729D02*
X019685Y015729D01*
X019685Y015847D02*
X017327Y015847D01*
X017446Y015966D02*
X019685Y015966D01*
X019685Y016084D02*
X017540Y016084D01*
X017540Y016203D02*
X019685Y016203D01*
X019685Y016321D02*
X017469Y016321D01*
X014305Y012529D02*
X013370Y012529D01*
X013370Y012411D02*
X014226Y012411D01*
X014180Y012292D02*
X013370Y012292D01*
X013370Y012174D02*
X014180Y012174D01*
X014203Y012055D02*
X013370Y012055D01*
X013370Y011937D02*
X014165Y011937D01*
X014047Y011818D02*
X013370Y011818D01*
X013370Y011700D02*
X013928Y011700D01*
X013810Y011581D02*
X013370Y011581D01*
X013370Y011463D02*
X013691Y011463D01*
X013600Y011344D02*
X013370Y011344D01*
X013370Y011226D02*
X013600Y011226D01*
X013600Y011107D02*
X013370Y011107D01*
X013370Y010989D02*
X013600Y010989D01*
X013599Y010870D02*
X013370Y010870D01*
X013370Y010752D02*
X013480Y010752D01*
X013125Y010396D02*
X007195Y010396D01*
X006950Y010752D02*
X006840Y010752D01*
X006820Y010870D02*
X006950Y010870D01*
X006950Y010989D02*
X006820Y010989D01*
X006820Y011107D02*
X006950Y011107D01*
X006950Y011226D02*
X006820Y011226D01*
X006820Y011344D02*
X006950Y011344D01*
X006950Y011463D02*
X006820Y011463D01*
X006820Y011581D02*
X006950Y011581D01*
X006006Y010633D02*
X005881Y010633D01*
X005887Y010752D02*
X005820Y010752D01*
X006029Y010515D02*
X006124Y010515D01*
X006100Y010396D02*
X006243Y010396D01*
X006140Y010278D02*
X006350Y010278D01*
X006350Y010159D02*
X006140Y010159D01*
X006111Y010041D02*
X006350Y010041D01*
X006350Y009922D02*
X006169Y009922D01*
X006288Y009804D02*
X006350Y009804D01*
X006050Y009567D02*
X005977Y009567D01*
X005954Y009685D02*
X000320Y009685D01*
X000320Y009567D02*
X003843Y009567D01*
X003741Y009448D02*
X000320Y009448D01*
X000320Y009330D02*
X003692Y009330D01*
X003680Y009211D02*
X000320Y009211D01*
X000320Y009093D02*
X003687Y009093D01*
X003736Y008974D02*
X000320Y008974D01*
X000320Y008856D02*
X003831Y008856D01*
X004036Y008737D02*
X000320Y008737D01*
X000320Y008619D02*
X003904Y008619D01*
X003776Y008500D02*
X000320Y008500D01*
X000320Y008382D02*
X003714Y008382D01*
X003680Y008263D02*
X000320Y008263D01*
X000320Y008145D02*
X003680Y008145D01*
X003715Y008026D02*
X000320Y008026D01*
X000320Y007908D02*
X003779Y007908D01*
X003910Y007789D02*
X000320Y007789D01*
X000320Y007671D02*
X004030Y007671D01*
X004065Y007685D02*
X003888Y007612D01*
X003753Y007477D01*
X003680Y007300D01*
X003680Y007110D01*
X003753Y006933D01*
X003888Y006798D01*
X004065Y006725D01*
X004255Y006725D01*
X004432Y006798D01*
X004567Y006933D01*
X004613Y007045D01*
X005207Y007045D01*
X005253Y006933D01*
X005388Y006798D01*
X005565Y006725D01*
X005755Y006725D01*
X005867Y006771D01*
X006704Y005935D01*
X006704Y005758D01*
X006768Y005693D01*
X007647Y005693D01*
X007711Y005758D01*
X007711Y005880D01*
X008309Y005880D01*
X008330Y005859D01*
X008330Y005760D01*
X008465Y005625D01*
X008655Y005625D01*
X008790Y005760D01*
X008790Y005950D01*
X008655Y006085D01*
X008556Y006085D01*
X008442Y006200D01*
X007711Y006200D01*
X007711Y006321D01*
X007647Y006386D01*
X006768Y006386D01*
X006737Y006355D01*
X006094Y006998D01*
X006140Y007110D01*
X006140Y007300D01*
X006067Y007477D01*
X005932Y007612D01*
X005755Y007685D01*
X005565Y007685D01*
X005388Y007612D01*
X005253Y007477D01*
X005207Y007365D01*
X004613Y007365D01*
X004567Y007477D01*
X004432Y007612D01*
X004255Y007685D01*
X004065Y007685D01*
X004290Y007671D02*
X005530Y007671D01*
X005410Y007789D02*
X004410Y007789D01*
X004541Y007908D02*
X005279Y007908D01*
X005215Y008026D02*
X004605Y008026D01*
X004606Y008382D02*
X005214Y008382D01*
X005276Y008500D02*
X004544Y008500D01*
X004416Y008619D02*
X005404Y008619D01*
X005536Y008737D02*
X004284Y008737D01*
X004489Y008856D02*
X005331Y008856D01*
X005236Y008974D02*
X004584Y008974D01*
X004579Y009448D02*
X005241Y009448D01*
X005343Y009567D02*
X004477Y009567D01*
X004437Y009804D02*
X005383Y009804D01*
X005264Y009922D02*
X004556Y009922D01*
X004611Y010041D02*
X005209Y010041D01*
X005220Y010396D02*
X004600Y010396D01*
X004529Y010515D02*
X005291Y010515D01*
X005439Y010633D02*
X004381Y010633D01*
X004320Y010752D02*
X005500Y010752D01*
X005316Y010870D02*
X004504Y010870D01*
X004590Y010989D02*
X005230Y010989D01*
X005247Y011463D02*
X004573Y011463D01*
X004463Y011581D02*
X005357Y011581D01*
X005368Y011818D02*
X004452Y011818D01*
X004568Y011937D02*
X005252Y011937D01*
X005226Y012411D02*
X004594Y012411D01*
X004515Y012529D02*
X005305Y012529D01*
X005474Y012648D02*
X004346Y012648D01*
X003974Y012648D02*
X003287Y012648D01*
X003280Y012529D02*
X003805Y012529D01*
X003726Y012411D02*
X002130Y012411D01*
X002533Y012885D02*
X000320Y012885D01*
X000320Y013003D02*
X000743Y013003D01*
X000901Y013003D02*
X000919Y013003D01*
X000919Y013122D02*
X000901Y013122D01*
X000901Y013240D02*
X000919Y013240D01*
X000919Y013359D02*
X002583Y013359D01*
X002583Y013477D02*
X001293Y013477D01*
X001234Y013596D02*
X002583Y013596D01*
X002583Y013682D02*
X002583Y013197D01*
X002648Y013133D01*
X003172Y013133D01*
X003237Y013197D01*
X003237Y013682D01*
X003172Y013746D01*
X003070Y013746D01*
X003070Y013790D01*
X003140Y013860D01*
X003140Y014050D01*
X003077Y014114D01*
X003172Y014114D01*
X003180Y014121D01*
X003180Y014010D01*
X003315Y013875D01*
X003505Y013875D01*
X003575Y013945D01*
X003690Y013945D01*
X003690Y013749D01*
X003704Y013735D01*
X003615Y013735D01*
X003480Y013600D01*
X003480Y013410D01*
X003615Y013275D01*
X003805Y013275D01*
X003875Y013345D01*
X004276Y013345D01*
X004520Y013589D01*
X004520Y013685D01*
X004566Y013685D01*
X004630Y013749D01*
X004630Y014621D01*
X004566Y014685D01*
X004254Y014685D01*
X004190Y014621D01*
X004190Y013749D01*
X004200Y013739D01*
X004200Y013721D01*
X004144Y013665D01*
X003875Y013665D01*
X003855Y013685D01*
X004066Y013685D01*
X004130Y013749D01*
X004130Y014621D01*
X004066Y014685D01*
X003754Y014685D01*
X003690Y014621D01*
X003690Y014265D01*
X003575Y014265D01*
X003505Y014335D01*
X003315Y014335D01*
X003237Y014257D01*
X003237Y014663D01*
X003172Y014727D01*
X002648Y014727D01*
X002583Y014663D01*
X002583Y014178D01*
X002648Y014114D01*
X002743Y014114D01*
X002680Y014050D01*
X002680Y013860D01*
X002750Y013790D01*
X002750Y013746D01*
X002648Y013746D01*
X002583Y013682D01*
X002615Y013714D02*
X001161Y013714D01*
X000901Y013359D02*
X000320Y013359D01*
X000320Y013477D02*
X000527Y013477D01*
X000586Y013596D02*
X000320Y013596D01*
X000320Y013714D02*
X000659Y013714D01*
X000584Y013833D02*
X000320Y013833D01*
X000320Y013951D02*
X000562Y013951D01*
X000581Y014070D02*
X000320Y014070D01*
X000320Y014188D02*
X000651Y014188D01*
X000657Y014307D02*
X000320Y014307D01*
X000320Y014425D02*
X000583Y014425D01*
X000562Y014544D02*
X000320Y014544D01*
X000320Y014662D02*
X000582Y014662D01*
X000653Y014781D02*
X000320Y014781D01*
X000320Y014899D02*
X000770Y014899D01*
X000770Y015018D02*
X000320Y015018D01*
X000320Y015136D02*
X000770Y015136D01*
X000770Y015255D02*
X000320Y015255D01*
X000320Y015373D02*
X000770Y015373D01*
X000770Y015492D02*
X000320Y015492D01*
X000320Y015610D02*
X000770Y015610D01*
X000770Y015729D02*
X000320Y015729D01*
X000320Y015847D02*
X000770Y015847D01*
X000770Y015966D02*
X000320Y015966D01*
X000320Y016084D02*
X000770Y016084D01*
X000770Y016203D02*
X000320Y016203D01*
X000320Y016321D02*
X000770Y016321D01*
X000770Y016440D02*
X000320Y016440D01*
X000320Y016558D02*
X000770Y016558D01*
X000770Y016677D02*
X000320Y016677D01*
X000320Y016795D02*
X000770Y016795D01*
X000770Y016914D02*
X000320Y016914D01*
X000320Y017032D02*
X000770Y017032D01*
X000770Y017151D02*
X000320Y017151D01*
X000320Y017269D02*
X000805Y017269D01*
X000924Y017388D02*
X000320Y017388D01*
X000320Y017506D02*
X001042Y017506D01*
X001224Y017151D02*
X011680Y017151D01*
X011581Y017032D02*
X011249Y017032D01*
X011310Y016914D02*
X011520Y016914D01*
X011520Y016795D02*
X011310Y016795D01*
X011310Y016677D02*
X011520Y016677D01*
X011520Y016558D02*
X011310Y016558D01*
X011310Y016440D02*
X011520Y016440D01*
X011520Y016321D02*
X011310Y016321D01*
X011310Y016203D02*
X011520Y016203D01*
X011520Y016084D02*
X011310Y016084D01*
X011276Y015966D02*
X011554Y015966D01*
X011150Y015847D02*
X012099Y015847D01*
X012281Y016203D02*
X012853Y016203D01*
X012839Y016321D02*
X012220Y016321D01*
X012220Y016440D02*
X012803Y016440D01*
X012803Y016558D02*
X012220Y016558D01*
X013122Y016795D02*
X013198Y016795D01*
X013198Y016914D02*
X013122Y016914D01*
X012853Y015729D02*
X011150Y015729D01*
X010770Y015729D02*
X005630Y015729D01*
X005630Y015689D02*
X005630Y015945D01*
X007545Y015945D01*
X007615Y015875D01*
X007805Y015875D01*
X007940Y016010D01*
X007940Y016200D01*
X007805Y016335D01*
X007615Y016335D01*
X007545Y016265D01*
X005630Y016265D01*
X005630Y016561D01*
X005566Y016625D01*
X005254Y016625D01*
X005190Y016561D01*
X005190Y015689D01*
X005254Y015625D01*
X005566Y015625D01*
X005630Y015689D01*
X005630Y015847D02*
X010770Y015847D01*
X010644Y015966D02*
X010429Y015966D01*
X010439Y015983D02*
X010450Y016024D01*
X010450Y016425D01*
X010110Y016425D01*
X010110Y016545D01*
X010450Y016545D01*
X010450Y016946D01*
X010439Y016987D01*
X010418Y017023D01*
X010388Y017053D01*
X010352Y017074D01*
X010311Y017085D01*
X010110Y017085D01*
X010110Y016545D01*
X009990Y016545D01*
X009990Y017085D01*
X009789Y017085D01*
X009748Y017074D01*
X009712Y017053D01*
X009682Y017023D01*
X009661Y016987D01*
X009650Y016946D01*
X009650Y016545D01*
X009990Y016545D01*
X009990Y016425D01*
X010110Y016425D01*
X010110Y015885D01*
X010311Y015885D01*
X010352Y015896D01*
X010388Y015917D01*
X010418Y015947D01*
X010439Y015983D01*
X010450Y016084D02*
X010610Y016084D01*
X010610Y016203D02*
X010450Y016203D01*
X010450Y016321D02*
X010610Y016321D01*
X010610Y016440D02*
X010110Y016440D01*
X010110Y016558D02*
X009990Y016558D01*
X009990Y016440D02*
X005630Y016440D01*
X005630Y016558D02*
X009650Y016558D01*
X009650Y016677D02*
X001150Y016677D01*
X001150Y016795D02*
X009650Y016795D01*
X009650Y016914D02*
X001150Y016914D01*
X001150Y017032D02*
X009691Y017032D01*
X009990Y017032D02*
X010110Y017032D01*
X010110Y016914D02*
X009990Y016914D01*
X009990Y016795D02*
X010110Y016795D01*
X010110Y016677D02*
X009990Y016677D01*
X009990Y016425D02*
X009650Y016425D01*
X009650Y016024D01*
X009661Y015983D01*
X009682Y015947D01*
X009712Y015917D01*
X009748Y015896D01*
X009789Y015885D01*
X009990Y015885D01*
X009990Y016425D01*
X009990Y016321D02*
X010110Y016321D01*
X010110Y016203D02*
X009990Y016203D01*
X009990Y016084D02*
X010110Y016084D01*
X010110Y015966D02*
X009990Y015966D01*
X009671Y015966D02*
X007896Y015966D01*
X007940Y016084D02*
X009650Y016084D01*
X009650Y016203D02*
X007938Y016203D01*
X007819Y016321D02*
X009650Y016321D01*
X010409Y017032D02*
X010671Y017032D01*
X010610Y016914D02*
X010450Y016914D01*
X010450Y016795D02*
X010610Y016795D01*
X010610Y016677D02*
X010450Y016677D01*
X010450Y016558D02*
X010610Y016558D01*
X010770Y015610D02*
X005080Y015610D01*
X005130Y015729D02*
X005190Y015729D01*
X005190Y015847D02*
X005130Y015847D01*
X005130Y015966D02*
X005190Y015966D01*
X005190Y016084D02*
X005130Y016084D01*
X005130Y016203D02*
X005190Y016203D01*
X005190Y016321D02*
X005130Y016321D01*
X005130Y016440D02*
X005190Y016440D01*
X005190Y016558D02*
X005130Y016558D01*
X004690Y016558D02*
X004630Y016558D01*
X004630Y016440D02*
X004690Y016440D01*
X004690Y016321D02*
X004630Y016321D01*
X004630Y016203D02*
X004690Y016203D01*
X004690Y016084D02*
X004630Y016084D01*
X004630Y015966D02*
X004690Y015966D01*
X004690Y015847D02*
X004630Y015847D01*
X004630Y015729D02*
X004690Y015729D01*
X004740Y015610D02*
X004570Y015610D01*
X004600Y015492D02*
X004680Y015492D01*
X004384Y015255D02*
X003237Y015255D01*
X003237Y015136D02*
X004503Y015136D01*
X004621Y015018D02*
X003237Y015018D01*
X003237Y014899D02*
X004740Y014899D01*
X004750Y014781D02*
X002612Y014781D01*
X002583Y014662D02*
X002570Y014662D01*
X002570Y014544D02*
X002583Y014544D01*
X002570Y014425D02*
X002583Y014425D01*
X002570Y014307D02*
X002583Y014307D01*
X002570Y014188D02*
X002583Y014188D01*
X002501Y014070D02*
X002699Y014070D01*
X002680Y013951D02*
X002382Y013951D01*
X002264Y013833D02*
X002707Y013833D01*
X003113Y013833D02*
X003690Y013833D01*
X003594Y013714D02*
X003205Y013714D01*
X003237Y013596D02*
X003480Y013596D01*
X003480Y013477D02*
X003237Y013477D01*
X003237Y013359D02*
X003531Y013359D01*
X003237Y013240D02*
X004837Y013240D01*
X004837Y013293D02*
X004499Y013293D01*
X004499Y013473D01*
X004510Y013514D01*
X004531Y013550D01*
X004561Y013580D01*
X004597Y013601D01*
X004638Y013612D01*
X004837Y013612D01*
X004837Y013293D01*
X004837Y013359D02*
X004914Y013359D01*
X004914Y013477D02*
X004837Y013477D01*
X004837Y013596D02*
X004914Y013596D01*
X005095Y013714D02*
X005220Y013714D01*
X005190Y013833D02*
X005130Y013833D01*
X005130Y013951D02*
X005190Y013951D01*
X005163Y013596D02*
X005301Y013596D01*
X005630Y013833D02*
X006811Y013833D01*
X006693Y013714D02*
X005720Y013714D01*
X005735Y013596D02*
X006574Y013596D01*
X006500Y013477D02*
X005871Y013477D01*
X005871Y013359D02*
X006500Y013359D01*
X006500Y013240D02*
X005871Y013240D01*
X005871Y013122D02*
X006500Y013122D01*
X006500Y013003D02*
X005862Y013003D01*
X006500Y012885D02*
X003287Y012885D01*
X003287Y012809D02*
X003287Y012988D01*
X003276Y013029D01*
X003255Y013065D01*
X003225Y013095D01*
X003188Y013116D01*
X003148Y013127D01*
X002948Y013127D01*
X002948Y012809D01*
X003287Y012809D01*
X003283Y013003D02*
X004508Y013003D01*
X004499Y013122D02*
X003169Y013122D01*
X002948Y013122D02*
X002872Y013122D01*
X002872Y013003D02*
X002948Y013003D01*
X002948Y012885D02*
X002872Y012885D01*
X002872Y012648D02*
X002948Y012648D01*
X002948Y012529D02*
X002872Y012529D01*
X002537Y013003D02*
X001077Y013003D01*
X001226Y013122D02*
X002651Y013122D01*
X002583Y013240D02*
X001289Y013240D01*
X000594Y013122D02*
X000320Y013122D01*
X000320Y013240D02*
X000531Y013240D01*
X001169Y014188D02*
X002167Y014188D01*
X002250Y014307D02*
X001163Y014307D01*
X001237Y014425D02*
X002250Y014425D01*
X002250Y014544D02*
X001258Y014544D01*
X001238Y014662D02*
X002250Y014662D01*
X002250Y014781D02*
X001167Y014781D01*
X001150Y014899D02*
X002278Y014899D01*
X002396Y015018D02*
X001150Y015018D01*
X001150Y015136D02*
X002515Y015136D01*
X002583Y015255D02*
X001150Y015255D01*
X001150Y015373D02*
X002624Y015373D01*
X003196Y015373D02*
X004266Y015373D01*
X004250Y015492D02*
X001150Y015492D01*
X001150Y015610D02*
X003699Y015610D01*
X003702Y015607D02*
X003738Y015586D01*
X003779Y015575D01*
X003910Y015575D01*
X004041Y015575D01*
X004082Y015586D01*
X004118Y015607D01*
X004148Y015637D01*
X004169Y015673D01*
X004180Y015714D01*
X004180Y016125D01*
X004180Y016536D01*
X004169Y016577D01*
X004148Y016613D01*
X004118Y016643D01*
X004082Y016664D01*
X004041Y016675D01*
X003910Y016675D01*
X003910Y016125D01*
X003910Y016125D01*
X004180Y016125D01*
X003910Y016125D01*
X003910Y016125D01*
X003910Y015575D01*
X003910Y016125D01*
X003910Y016125D01*
X003910Y016125D01*
X003640Y016125D01*
X003640Y016536D01*
X003651Y016577D01*
X003672Y016613D01*
X003702Y016643D01*
X003738Y016664D01*
X003779Y016675D01*
X003910Y016675D01*
X003910Y016125D01*
X003640Y016125D01*
X003640Y015714D01*
X003651Y015673D01*
X003672Y015637D01*
X003702Y015607D01*
X003640Y015729D02*
X001150Y015729D01*
X001150Y015847D02*
X003640Y015847D01*
X003640Y015966D02*
X001150Y015966D01*
X001150Y016084D02*
X003640Y016084D01*
X003640Y016203D02*
X001150Y016203D01*
X001150Y016321D02*
X003640Y016321D01*
X003640Y016440D02*
X001150Y016440D01*
X001150Y016558D02*
X003646Y016558D01*
X003910Y016558D02*
X003910Y016558D01*
X003910Y016440D02*
X003910Y016440D01*
X003910Y016321D02*
X003910Y016321D01*
X003910Y016203D02*
X003910Y016203D01*
X003910Y016084D02*
X003910Y016084D01*
X003910Y015966D02*
X003910Y015966D01*
X003910Y015847D02*
X003910Y015847D01*
X003910Y015729D02*
X003910Y015729D01*
X003910Y015610D02*
X003910Y015610D01*
X004121Y015610D02*
X004250Y015610D01*
X004190Y015729D02*
X004180Y015729D01*
X004180Y015847D02*
X004190Y015847D01*
X004180Y015966D02*
X004190Y015966D01*
X004180Y016084D02*
X004190Y016084D01*
X004180Y016203D02*
X004190Y016203D01*
X004180Y016321D02*
X004190Y016321D01*
X004180Y016440D02*
X004190Y016440D01*
X004190Y016558D02*
X004174Y016558D01*
X003964Y017625D02*
X000320Y017625D01*
X000320Y017743D02*
X003846Y017743D01*
X003727Y017862D02*
X000320Y017862D01*
X000320Y017980D02*
X003700Y017980D01*
X003691Y018099D02*
X000320Y018099D01*
X000320Y018217D02*
X003630Y018217D01*
X003630Y018336D02*
X000320Y018336D01*
X000320Y018454D02*
X000813Y018454D01*
X000834Y018433D02*
X001037Y018349D01*
X001258Y018349D01*
X001461Y018433D01*
X001617Y018589D01*
X001701Y018792D01*
X001701Y019013D01*
X001617Y019216D01*
X001461Y019372D01*
X001258Y019456D01*
X001037Y019456D01*
X000834Y019372D01*
X000678Y019216D01*
X000594Y019013D01*
X000594Y018792D01*
X000678Y018589D01*
X000834Y018433D01*
X000694Y018573D02*
X000320Y018573D01*
X000320Y018691D02*
X000636Y018691D01*
X000594Y018810D02*
X000320Y018810D01*
X000320Y018928D02*
X000594Y018928D01*
X000608Y019047D02*
X000320Y019047D01*
X000325Y019165D02*
X000657Y019165D01*
X000745Y019284D02*
X000355Y019284D01*
X000399Y019402D02*
X000906Y019402D01*
X000631Y019639D02*
X002515Y019639D01*
X002430Y019521D02*
X000485Y019521D01*
X001389Y019402D02*
X002381Y019402D01*
X002380Y019284D02*
X001550Y019284D01*
X001638Y019165D02*
X002398Y019165D01*
X002448Y019047D02*
X001687Y019047D01*
X001701Y018928D02*
X002558Y018928D01*
X003162Y018928D02*
X003558Y018928D01*
X003448Y019047D02*
X003272Y019047D01*
X003322Y019165D02*
X003398Y019165D01*
X003380Y019284D02*
X003340Y019284D01*
X003339Y019402D02*
X003381Y019402D01*
X003430Y019521D02*
X003290Y019521D01*
X003205Y019639D02*
X003515Y019639D01*
X004162Y018928D02*
X004558Y018928D01*
X004448Y019047D02*
X004272Y019047D01*
X004322Y019165D02*
X004398Y019165D01*
X004380Y019284D02*
X004340Y019284D01*
X004339Y019402D02*
X004381Y019402D01*
X004430Y019521D02*
X004290Y019521D01*
X004205Y019639D02*
X004515Y019639D01*
X005205Y019639D02*
X005515Y019639D01*
X005430Y019521D02*
X005290Y019521D01*
X005339Y019402D02*
X005381Y019402D01*
X005380Y019284D02*
X005340Y019284D01*
X005322Y019165D02*
X005398Y019165D01*
X005448Y019047D02*
X005272Y019047D01*
X005162Y018928D02*
X005558Y018928D01*
X005020Y018810D02*
X007670Y018810D01*
X007820Y018810D02*
X007900Y018810D01*
X007900Y018775D02*
X007902Y018775D01*
X007984Y018788D01*
X008063Y018814D01*
X008138Y018852D01*
X008205Y018901D01*
X008264Y018960D01*
X008313Y019027D01*
X008351Y019102D01*
X008377Y019181D01*
X008390Y019263D01*
X008390Y019265D01*
X007900Y019265D01*
X007900Y018775D01*
X007900Y018928D02*
X007820Y018928D01*
X007820Y019047D02*
X007900Y019047D01*
X007900Y019165D02*
X007820Y019165D01*
X007900Y019284D02*
X008530Y019284D01*
X008530Y019402D02*
X008381Y019402D01*
X008345Y019521D02*
X008530Y019521D01*
X008530Y019639D02*
X008272Y019639D01*
X008372Y019165D02*
X008530Y019165D01*
X008530Y019047D02*
X008323Y019047D01*
X008233Y018928D02*
X008530Y018928D01*
X008530Y018810D02*
X008050Y018810D01*
X008530Y018691D02*
X005020Y018691D01*
X005020Y018573D02*
X008530Y018573D01*
X008530Y018454D02*
X005020Y018454D01*
X005020Y018336D02*
X008604Y018336D01*
X007487Y018928D02*
X007162Y018928D01*
X007272Y019047D02*
X007397Y019047D01*
X007348Y019165D02*
X007322Y019165D01*
X006558Y018928D02*
X006162Y018928D01*
X006272Y019047D02*
X006448Y019047D01*
X006398Y019165D02*
X006322Y019165D01*
X006340Y019284D02*
X006380Y019284D01*
X006381Y019402D02*
X006339Y019402D01*
X006290Y019521D02*
X006430Y019521D01*
X006515Y019639D02*
X006205Y019639D01*
X004700Y018810D02*
X001701Y018810D01*
X001659Y018691D02*
X004700Y018691D01*
X004700Y018573D02*
X001600Y018573D01*
X001482Y018454D02*
X003734Y018454D01*
X003986Y018454D02*
X004700Y018454D01*
X004700Y018336D02*
X004090Y018336D01*
X004090Y018217D02*
X004700Y018217D01*
X004790Y018099D02*
X004029Y018099D01*
X004061Y017980D02*
X004909Y017980D01*
X005630Y016321D02*
X007601Y016321D01*
X007487Y015255D02*
X008833Y015255D01*
X008850Y014781D02*
X007470Y014781D01*
X007422Y014677D02*
X006898Y014677D01*
X006833Y014613D01*
X006833Y014515D01*
X006475Y014515D01*
X006405Y014585D01*
X006215Y014585D01*
X006080Y014450D01*
X006080Y014260D01*
X006215Y014125D01*
X006405Y014125D01*
X006475Y014195D01*
X006833Y014195D01*
X006833Y014128D01*
X006898Y014064D01*
X007422Y014064D01*
X007487Y014128D01*
X007487Y014613D01*
X007422Y014677D01*
X007437Y014662D02*
X008042Y014662D01*
X007930Y014544D02*
X007487Y014544D01*
X007487Y014425D02*
X007930Y014425D01*
X007934Y014307D02*
X007983Y014307D01*
X008040Y014188D02*
X008833Y014188D01*
X008883Y014662D02*
X008278Y014662D01*
X007686Y014307D02*
X007487Y014307D01*
X007487Y014188D02*
X007580Y014188D01*
X007580Y014070D02*
X007428Y014070D01*
X007639Y013951D02*
X005630Y013951D01*
X005630Y014070D02*
X006892Y014070D01*
X006833Y014188D02*
X006468Y014188D01*
X006152Y014188D02*
X005630Y014188D01*
X005630Y014307D02*
X006080Y014307D01*
X006080Y014425D02*
X005699Y014425D01*
X005817Y014544D02*
X006173Y014544D01*
X005936Y014662D02*
X006883Y014662D01*
X006833Y014544D02*
X006447Y014544D01*
X006622Y015136D02*
X004955Y015136D01*
X005035Y015255D02*
X006833Y015255D01*
X005754Y015018D02*
X005070Y015018D01*
X005070Y014899D02*
X005635Y014899D01*
X005517Y014781D02*
X005070Y014781D01*
X005089Y014662D02*
X005231Y014662D01*
X005190Y014544D02*
X005130Y014544D01*
X005130Y014425D02*
X005190Y014425D01*
X004690Y014425D02*
X004630Y014425D01*
X004630Y014307D02*
X004690Y014307D01*
X004690Y014188D02*
X004630Y014188D01*
X004630Y014070D02*
X004690Y014070D01*
X004690Y013951D02*
X004630Y013951D01*
X004630Y013833D02*
X004690Y013833D01*
X004725Y013714D02*
X004595Y013714D01*
X004588Y013596D02*
X004520Y013596D01*
X004500Y013477D02*
X004408Y013477D01*
X004499Y013359D02*
X004290Y013359D01*
X004193Y013714D02*
X004095Y013714D01*
X004130Y013833D02*
X004190Y013833D01*
X004190Y013951D02*
X004130Y013951D01*
X004130Y014070D02*
X004190Y014070D01*
X004190Y014188D02*
X004130Y014188D01*
X004130Y014307D02*
X004190Y014307D01*
X004190Y014425D02*
X004130Y014425D01*
X004130Y014544D02*
X004190Y014544D01*
X004231Y014662D02*
X004089Y014662D01*
X003731Y014662D02*
X003237Y014662D01*
X003237Y014544D02*
X003690Y014544D01*
X003690Y014425D02*
X003237Y014425D01*
X003237Y014307D02*
X003286Y014307D01*
X003534Y014307D02*
X003690Y014307D01*
X003239Y013951D02*
X003140Y013951D01*
X003121Y014070D02*
X003180Y014070D01*
X004589Y014662D02*
X004731Y014662D01*
X004690Y014544D02*
X004630Y014544D01*
X005140Y015373D02*
X010770Y015373D01*
X010770Y015255D02*
X009487Y015255D01*
X009470Y014781D02*
X010850Y014781D01*
X010883Y014662D02*
X010278Y014662D01*
X010042Y014662D02*
X009437Y014662D01*
X009487Y014544D02*
X009930Y014544D01*
X009930Y014425D02*
X009487Y014425D01*
X009487Y014307D02*
X009983Y014307D01*
X009487Y014188D02*
X010833Y014188D01*
X010770Y015492D02*
X005140Y015492D01*
X004914Y013122D02*
X004837Y013122D01*
X004837Y013003D02*
X004914Y013003D01*
X003857Y011581D02*
X003009Y011581D01*
X003128Y011463D02*
X003747Y011463D01*
X003730Y010989D02*
X000320Y010989D01*
X000320Y011107D02*
X002932Y011107D01*
X002714Y011226D02*
X000320Y011226D01*
X000320Y011344D02*
X002680Y011344D01*
X002692Y011463D02*
X000320Y011463D01*
X000320Y011581D02*
X002811Y011581D01*
X003816Y010870D02*
X000320Y010870D01*
X000320Y010752D02*
X004000Y010752D01*
X003939Y010633D02*
X000320Y010633D01*
X000320Y010515D02*
X003791Y010515D01*
X003720Y010396D02*
X000320Y010396D01*
X000320Y010278D02*
X003680Y010278D01*
X003680Y010159D02*
X000320Y010159D01*
X000320Y010041D02*
X003709Y010041D01*
X003764Y009922D02*
X000320Y009922D01*
X000320Y009804D02*
X003883Y009804D01*
X005784Y008737D02*
X005902Y008737D01*
X005916Y008619D02*
X006020Y008619D01*
X006044Y008500D02*
X006139Y008500D01*
X006106Y008382D02*
X006250Y008382D01*
X006250Y008263D02*
X006140Y008263D01*
X006140Y008145D02*
X006250Y008145D01*
X006363Y008026D02*
X006105Y008026D01*
X006184Y007908D02*
X006481Y007908D01*
X006600Y007789D02*
X006302Y007789D01*
X006421Y007671D02*
X006704Y007671D01*
X006704Y007552D02*
X006539Y007552D01*
X006658Y007434D02*
X006704Y007434D01*
X006895Y007197D02*
X009193Y007197D01*
X009130Y007315D02*
X007693Y007315D01*
X007711Y007434D02*
X009130Y007434D01*
X009232Y007552D02*
X007711Y007552D01*
X007711Y007671D02*
X009449Y007671D01*
X009665Y007434D02*
X012609Y007434D01*
X012627Y007315D02*
X009590Y007315D01*
X009527Y007197D02*
X013425Y007197D01*
X013759Y007078D02*
X014193Y007078D01*
X014188Y006960D02*
X014031Y006960D01*
X014180Y007197D02*
X013878Y007197D01*
X013996Y007315D02*
X014186Y007315D01*
X014235Y007434D02*
X014115Y007434D01*
X014233Y007552D02*
X014328Y007552D01*
X014352Y007671D02*
X014530Y007671D01*
X014215Y008026D02*
X013957Y008026D01*
X013839Y007908D02*
X014136Y007908D01*
X014018Y007789D02*
X013720Y007789D01*
X013616Y007671D02*
X013899Y007671D01*
X013781Y007552D02*
X013616Y007552D01*
X013616Y007434D02*
X013662Y007434D01*
X013505Y008026D02*
X006815Y008026D01*
X006324Y007315D02*
X006134Y007315D01*
X006140Y007197D02*
X006442Y007197D01*
X006561Y007078D02*
X006127Y007078D01*
X006132Y006960D02*
X006679Y006960D01*
X006704Y006841D02*
X006250Y006841D01*
X006369Y006723D02*
X006704Y006723D01*
X006704Y006604D02*
X006487Y006604D01*
X006606Y006486D02*
X006763Y006486D01*
X006749Y006367D02*
X006724Y006367D01*
X006509Y006130D02*
X006211Y006130D01*
X006140Y006201D02*
X006140Y006300D01*
X006067Y006477D01*
X005932Y006612D01*
X005755Y006685D01*
X005565Y006685D01*
X005388Y006612D01*
X005253Y006477D01*
X005207Y006365D01*
X004613Y006365D01*
X004567Y006477D01*
X004432Y006612D01*
X004255Y006685D01*
X004065Y006685D01*
X003888Y006612D01*
X003753Y006477D01*
X003680Y006300D01*
X003680Y006110D01*
X003753Y005933D01*
X003888Y005798D01*
X004065Y005725D01*
X004255Y005725D01*
X004432Y005798D01*
X004567Y005933D01*
X004613Y006045D01*
X005207Y006045D01*
X005253Y005933D01*
X005388Y005798D01*
X005565Y005725D01*
X005755Y005725D01*
X005932Y005798D01*
X006011Y005877D01*
X006704Y005185D01*
X006704Y004970D01*
X006768Y004906D01*
X007647Y004906D01*
X007711Y004970D01*
X007711Y004979D01*
X007815Y004875D01*
X008005Y004875D01*
X008140Y005010D01*
X008140Y005200D01*
X008005Y005335D01*
X007906Y005335D01*
X007829Y005412D01*
X007711Y005412D01*
X007711Y005534D01*
X007647Y005598D01*
X006768Y005598D01*
X006755Y005586D01*
X006140Y006201D01*
X006140Y006249D02*
X006390Y006249D01*
X006272Y006367D02*
X006112Y006367D01*
X006153Y006486D02*
X006058Y006486D01*
X006035Y006604D02*
X005940Y006604D01*
X005916Y006723D02*
X000320Y006723D01*
X000320Y006841D02*
X003845Y006841D01*
X003742Y006960D02*
X000320Y006960D01*
X000320Y007078D02*
X003693Y007078D01*
X003680Y007197D02*
X000320Y007197D01*
X000320Y007315D02*
X003686Y007315D01*
X003735Y007434D02*
X000320Y007434D01*
X000320Y007552D02*
X003828Y007552D01*
X004492Y007552D02*
X005328Y007552D01*
X005235Y007434D02*
X004585Y007434D01*
X004578Y006960D02*
X005242Y006960D01*
X005345Y006841D02*
X004475Y006841D01*
X004440Y006604D02*
X005380Y006604D01*
X005262Y006486D02*
X004558Y006486D01*
X004612Y006367D02*
X005208Y006367D01*
X005221Y006012D02*
X004599Y006012D01*
X004527Y005893D02*
X005293Y005893D01*
X005445Y005775D02*
X004375Y005775D01*
X004325Y005656D02*
X005495Y005656D01*
X005565Y005685D02*
X005388Y005612D01*
X005253Y005477D01*
X005219Y005395D01*
X004601Y005395D01*
X004567Y005477D01*
X004432Y005612D01*
X004255Y005685D01*
X004065Y005685D01*
X003888Y005612D01*
X003753Y005477D01*
X003680Y005300D01*
X003680Y005110D01*
X003753Y004933D01*
X003888Y004798D01*
X004065Y004725D01*
X004255Y004725D01*
X004432Y004798D01*
X004567Y004933D01*
X004601Y005015D01*
X005219Y005015D01*
X005253Y004933D01*
X005388Y004798D01*
X005565Y004725D01*
X005755Y004725D01*
X005932Y004798D01*
X006067Y004933D01*
X006140Y005110D01*
X006140Y005300D01*
X006067Y005477D01*
X005932Y005612D01*
X005755Y005685D01*
X005565Y005685D01*
X005314Y005538D02*
X004506Y005538D01*
X004591Y005419D02*
X005229Y005419D01*
X005248Y004945D02*
X004572Y004945D01*
X004460Y004827D02*
X005360Y004827D01*
X005960Y004827D02*
X011813Y004827D01*
X011695Y004945D02*
X010075Y004945D01*
X010190Y005064D02*
X011680Y005064D01*
X012007Y004827D02*
X012618Y004827D01*
X012635Y004945D02*
X012125Y004945D01*
X012140Y005064D02*
X012609Y005064D01*
X012559Y004708D02*
X007711Y004708D01*
X007711Y004590D02*
X012559Y004590D01*
X012559Y004407D02*
X012559Y004208D01*
X012570Y004167D01*
X012591Y004130D01*
X012621Y004101D01*
X012657Y004080D01*
X012698Y004069D01*
X013055Y004069D01*
X013055Y004407D01*
X012559Y004407D01*
X012559Y004353D02*
X007711Y004353D01*
X007711Y004471D02*
X013055Y004471D01*
X013171Y004471D02*
X019685Y004471D01*
X019685Y005301D02*
X016681Y005301D01*
X016646Y005419D02*
X019685Y005419D01*
X019685Y005538D02*
X016574Y005538D01*
X016441Y005656D02*
X019685Y005656D01*
X019685Y005775D02*
X016375Y005775D01*
X016527Y005893D02*
X019685Y005893D01*
X019685Y006012D02*
X016599Y006012D01*
X016640Y006130D02*
X019685Y006130D01*
X019685Y006249D02*
X016640Y006249D01*
X016612Y006367D02*
X019685Y006367D01*
X019685Y006486D02*
X016558Y006486D01*
X016440Y006604D02*
X019685Y006604D01*
X019685Y006723D02*
X014404Y006723D01*
X014380Y006604D02*
X014285Y006604D01*
X014262Y006486D02*
X014167Y006486D01*
X014208Y006367D02*
X014048Y006367D01*
X013930Y006249D02*
X014180Y006249D01*
X014109Y006130D02*
X013811Y006130D01*
X013693Y006012D02*
X013990Y006012D01*
X013872Y005893D02*
X013616Y005893D01*
X013655Y005973D02*
X013655Y005973D01*
X013616Y005775D02*
X013753Y005775D01*
X013635Y005656D02*
X012586Y005656D01*
X012613Y005538D02*
X007707Y005538D01*
X007711Y005419D02*
X012609Y005419D01*
X012334Y005656D02*
X008686Y005656D01*
X008790Y005775D02*
X012230Y005775D01*
X012230Y005893D02*
X008790Y005893D01*
X008729Y006012D02*
X012291Y006012D01*
X012509Y006130D02*
X008511Y006130D01*
X008330Y005775D02*
X007711Y005775D01*
X007711Y006249D02*
X012609Y006249D01*
X012655Y006367D02*
X007665Y006367D01*
X007651Y006486D02*
X009554Y006486D01*
X009436Y006604D02*
X007711Y006604D01*
X007711Y007078D02*
X012609Y007078D01*
X012609Y006960D02*
X009632Y006960D01*
X009849Y006841D02*
X012609Y006841D01*
X012609Y006723D02*
X009890Y006723D01*
X009884Y006604D02*
X012609Y006604D01*
X012669Y006486D02*
X009766Y006486D01*
X009780Y005301D02*
X008040Y005301D01*
X008140Y005182D02*
X009730Y005182D01*
X009730Y005064D02*
X008140Y005064D01*
X008075Y004945D02*
X009845Y004945D01*
X008978Y003642D02*
X006600Y003642D01*
X006600Y003760D02*
X017793Y003760D01*
X017675Y003642D02*
X011999Y003642D01*
X012040Y003523D02*
X017589Y003523D01*
X017605Y003405D02*
X012860Y003405D01*
X012856Y003418D02*
X012835Y003454D01*
X012805Y003484D01*
X012769Y003505D01*
X012728Y003516D01*
X012548Y003516D01*
X012548Y003178D01*
X012867Y003178D01*
X012867Y003377D01*
X012856Y003418D01*
X012867Y003286D02*
X017716Y003286D01*
X017906Y003286D02*
X018076Y003286D01*
X018025Y003405D02*
X018194Y003405D01*
X018194Y003760D02*
X018024Y003760D01*
X018075Y003879D02*
X006600Y003879D01*
X006600Y003997D02*
X018030Y003997D01*
X017957Y003168D02*
X012548Y003168D01*
X012472Y003168D02*
X012101Y003168D01*
X012101Y003286D02*
X012153Y003286D01*
X012160Y003405D02*
X012101Y003405D01*
X012101Y003049D02*
X012153Y003049D01*
X012472Y003286D02*
X012548Y003286D01*
X012548Y003405D02*
X012472Y003405D01*
X012867Y003049D02*
X017953Y003049D01*
X018072Y002931D02*
X012867Y002931D01*
X011915Y002575D02*
X011727Y002575D01*
X011796Y002694D02*
X011024Y002694D01*
X011090Y002812D02*
X011780Y002812D01*
X011612Y002931D02*
X011308Y002931D01*
X011353Y003049D02*
X011567Y003049D01*
X011567Y003168D02*
X011353Y003168D01*
X011353Y003286D02*
X011567Y003286D01*
X011567Y003405D02*
X011353Y003405D01*
X011580Y003523D02*
X011030Y003523D01*
X010912Y003642D02*
X011621Y003642D01*
X012606Y004116D02*
X006600Y004116D01*
X006600Y004234D02*
X006704Y004234D01*
X006220Y004234D02*
X001943Y004234D01*
X001943Y004116D02*
X006220Y004116D01*
X006220Y003997D02*
X001969Y003997D01*
X001943Y004023D02*
X001943Y004363D01*
X002040Y004460D01*
X002040Y004650D01*
X001905Y004785D01*
X001715Y004785D01*
X001580Y004650D01*
X001580Y004460D01*
X001623Y004417D01*
X001623Y004218D01*
X001130Y003725D01*
X001130Y003634D01*
X001835Y002929D01*
X001926Y002929D01*
X002436Y003439D01*
X002436Y003530D01*
X001943Y004023D01*
X002087Y003879D02*
X006220Y003879D01*
X006220Y003760D02*
X002206Y003760D01*
X002324Y003642D02*
X006220Y003642D01*
X006220Y003523D02*
X002436Y003523D01*
X002402Y003405D02*
X006226Y003405D01*
X006345Y003286D02*
X002283Y003286D01*
X002165Y003168D02*
X006453Y003168D01*
X006453Y003049D02*
X002046Y003049D01*
X001928Y002931D02*
X006453Y002931D01*
X006462Y002812D02*
X000320Y002812D01*
X000320Y002694D02*
X006403Y002694D01*
X006722Y002457D02*
X003580Y002457D01*
X004054Y001983D02*
X011270Y001983D01*
X011270Y001864D02*
X004173Y001864D01*
X004240Y001746D02*
X009075Y001746D01*
X009345Y001746D02*
X011270Y001746D01*
X011270Y001627D02*
X009440Y001627D01*
X009440Y001509D02*
X011270Y001509D01*
X011241Y002101D02*
X008805Y002101D01*
X008913Y002220D02*
X009992Y002220D01*
X009994Y002212D02*
X010015Y002175D01*
X010045Y002145D01*
X010082Y002124D01*
X010122Y002114D01*
X010322Y002114D01*
X010322Y002432D01*
X009983Y002432D01*
X009983Y002252D01*
X009994Y002212D01*
X009983Y002338D02*
X008917Y002338D01*
X008917Y002575D02*
X009983Y002575D01*
X009985Y002694D02*
X008917Y002694D01*
X008858Y002812D02*
X010074Y002812D01*
X010033Y002931D02*
X008867Y002931D01*
X008923Y003049D02*
X009791Y003049D01*
X009730Y003168D02*
X009041Y003168D01*
X009160Y003286D02*
X009730Y003286D01*
X010322Y002812D02*
X010398Y002812D01*
X010398Y002694D02*
X010322Y002694D01*
X010322Y002575D02*
X010398Y002575D01*
X010398Y002457D02*
X011193Y002457D01*
X011193Y002575D02*
X010737Y002575D01*
X010737Y002338D02*
X011193Y002338D01*
X011193Y002220D02*
X010728Y002220D01*
X010398Y002220D02*
X010322Y002220D01*
X010322Y002338D02*
X010398Y002338D01*
X010322Y002457D02*
X008598Y002457D01*
X008522Y002457D02*
X007648Y002457D01*
X007572Y002457D02*
X006798Y002457D01*
X006798Y002338D02*
X006722Y002338D01*
X006722Y002220D02*
X006798Y002220D01*
X006798Y002101D02*
X006722Y002101D01*
X007005Y002101D02*
X007365Y002101D01*
X007351Y002105D02*
X007392Y002094D01*
X007572Y002094D01*
X007572Y002432D01*
X007253Y002432D01*
X007253Y002233D01*
X007264Y002192D01*
X007285Y002156D01*
X007315Y002126D01*
X007351Y002105D01*
X007257Y002220D02*
X007113Y002220D01*
X007117Y002338D02*
X007253Y002338D01*
X007253Y002575D02*
X007117Y002575D01*
X007117Y002694D02*
X007253Y002694D01*
X007312Y002812D02*
X007058Y002812D01*
X007067Y002931D02*
X007303Y002931D01*
X007572Y002338D02*
X007648Y002338D01*
X007648Y002220D02*
X007572Y002220D01*
X007572Y002101D02*
X007648Y002101D01*
X007855Y002101D02*
X008315Y002101D01*
X008301Y002105D02*
X008342Y002094D01*
X008522Y002094D01*
X008522Y002432D01*
X008203Y002432D01*
X008203Y002233D01*
X008214Y002192D01*
X008235Y002156D01*
X008265Y002126D01*
X008301Y002105D01*
X008207Y002220D02*
X007963Y002220D01*
X007967Y002338D02*
X008203Y002338D01*
X008203Y002575D02*
X007967Y002575D01*
X007967Y002694D02*
X008203Y002694D01*
X008262Y002812D02*
X007908Y002812D01*
X007917Y002931D02*
X008253Y002931D01*
X008522Y002338D02*
X008598Y002338D01*
X008598Y002220D02*
X008522Y002220D01*
X008522Y002101D02*
X008598Y002101D01*
X008325Y001272D02*
X007867Y001272D01*
X007986Y001153D02*
X008206Y001153D01*
X008147Y001035D02*
X008045Y001035D01*
X008076Y000916D02*
X008116Y000916D01*
X008116Y000798D02*
X008076Y000798D01*
X008039Y000679D02*
X008153Y000679D01*
X008221Y000561D02*
X007971Y000561D01*
X007831Y000442D02*
X008361Y000442D01*
X008831Y000442D02*
X009361Y000442D01*
X009221Y000561D02*
X008971Y000561D01*
X009039Y000679D02*
X009153Y000679D01*
X009116Y000798D02*
X009076Y000798D01*
X009076Y000916D02*
X009116Y000916D01*
X009147Y001035D02*
X009045Y001035D01*
X008986Y001153D02*
X009206Y001153D01*
X009867Y001272D02*
X010255Y001272D01*
X010151Y001153D02*
X009986Y001153D01*
X010045Y001035D02*
X010094Y001035D01*
X010099Y000679D02*
X010039Y000679D01*
X009971Y000561D02*
X010162Y000561D01*
X010276Y000442D02*
X009831Y000442D01*
X010556Y000916D02*
X010636Y000916D01*
X010636Y001035D02*
X010556Y001035D01*
X010556Y001153D02*
X010636Y001153D01*
X010636Y001272D02*
X010556Y001272D01*
X008802Y003466D02*
X008802Y003466D01*
X008859Y003523D02*
X006645Y003523D01*
X007064Y003405D02*
X007306Y003405D01*
X007914Y003405D02*
X008256Y003405D01*
X007711Y004234D02*
X012559Y004234D01*
X013055Y004234D02*
X013171Y004234D01*
X013171Y004116D02*
X013055Y004116D01*
X013055Y004353D02*
X013171Y004353D01*
X013171Y004590D02*
X013055Y004590D01*
X013055Y004708D02*
X013171Y004708D01*
X013171Y004827D02*
X013055Y004827D01*
X013850Y005419D02*
X014174Y005419D01*
X014246Y005538D02*
X013969Y005538D01*
X014087Y005656D02*
X014379Y005656D01*
X014445Y005775D02*
X014206Y005775D01*
X013596Y006367D02*
X013571Y006367D01*
X013557Y006486D02*
X013714Y006486D01*
X013736Y006604D02*
X013616Y006604D01*
X012609Y007789D02*
X007711Y007789D01*
X007700Y007908D02*
X012620Y007908D01*
X012609Y008145D02*
X007711Y008145D01*
X007711Y008263D02*
X012609Y008263D01*
X012609Y008382D02*
X007711Y008382D01*
X007711Y008500D02*
X012609Y008500D01*
X012609Y008619D02*
X007711Y008619D01*
X007658Y008737D02*
X012662Y008737D01*
X012661Y008856D02*
X007659Y008856D01*
X007711Y008974D02*
X012609Y008974D01*
X012609Y009093D02*
X007711Y009093D01*
X007711Y009211D02*
X012609Y009211D01*
X012609Y009330D02*
X007711Y009330D01*
X007711Y009448D02*
X012609Y009448D01*
X012619Y009685D02*
X007701Y009685D01*
X007711Y009804D02*
X012609Y009804D01*
X012609Y009922D02*
X007711Y009922D01*
X007711Y010041D02*
X012609Y010041D01*
X012609Y010159D02*
X007711Y010159D01*
X007692Y010278D02*
X012628Y010278D01*
X013616Y009448D02*
X013650Y009448D01*
X013874Y009093D02*
X013950Y009093D01*
X013853Y008974D02*
X013616Y008974D01*
X013565Y008856D02*
X013734Y008856D01*
X013616Y008737D02*
X013563Y008737D01*
X014120Y008382D02*
X014214Y008382D01*
X014181Y008500D02*
X014276Y008500D01*
X014300Y008619D02*
X014404Y008619D01*
X014418Y008737D02*
X014536Y008737D01*
X014180Y008263D02*
X014120Y008263D01*
X014076Y008145D02*
X014180Y008145D01*
X014270Y009567D02*
X014343Y009567D01*
X014366Y009685D02*
X019685Y009685D01*
X019685Y009567D02*
X016477Y009567D01*
X016579Y009448D02*
X019685Y009448D01*
X019685Y009330D02*
X016628Y009330D01*
X016640Y009211D02*
X019685Y009211D01*
X019685Y009093D02*
X016633Y009093D01*
X016584Y008974D02*
X019685Y008974D01*
X019685Y008856D02*
X016489Y008856D01*
X016284Y008737D02*
X019685Y008737D01*
X019685Y008619D02*
X016416Y008619D01*
X016544Y008500D02*
X019685Y008500D01*
X019685Y008382D02*
X016606Y008382D01*
X016640Y008263D02*
X019685Y008263D01*
X019685Y008145D02*
X016640Y008145D01*
X016605Y008026D02*
X019685Y008026D01*
X019685Y007908D02*
X016541Y007908D01*
X016410Y007789D02*
X019685Y007789D01*
X019685Y007671D02*
X016290Y007671D01*
X016492Y007552D02*
X019685Y007552D01*
X019685Y007434D02*
X016585Y007434D01*
X016634Y007315D02*
X019685Y007315D01*
X019685Y007197D02*
X016640Y007197D01*
X016627Y007078D02*
X019685Y007078D01*
X019685Y006960D02*
X016578Y006960D01*
X016475Y006841D02*
X019685Y006841D01*
X019685Y009804D02*
X016437Y009804D01*
X016556Y009922D02*
X019685Y009922D01*
X019685Y010041D02*
X016611Y010041D01*
X016640Y010159D02*
X019685Y010159D01*
X019685Y010278D02*
X016640Y010278D01*
X016600Y010396D02*
X019685Y010396D01*
X019685Y010515D02*
X016529Y010515D01*
X016381Y010633D02*
X019685Y010633D01*
X019685Y010752D02*
X016320Y010752D01*
X016504Y010870D02*
X019685Y010870D01*
X019685Y010989D02*
X016590Y010989D01*
X016639Y011107D02*
X019685Y011107D01*
X019685Y011226D02*
X016640Y011226D01*
X016622Y011344D02*
X019685Y011344D01*
X019685Y011463D02*
X016573Y011463D01*
X016463Y011581D02*
X019685Y011581D01*
X014500Y010752D02*
X014433Y010752D01*
X014439Y010633D02*
X014314Y010633D01*
X014291Y010515D02*
X014196Y010515D01*
X014220Y010396D02*
X014077Y010396D01*
X014180Y010278D02*
X013970Y010278D01*
X013970Y010159D02*
X014180Y010159D01*
X014209Y010041D02*
X013970Y010041D01*
X013970Y009922D02*
X014151Y009922D01*
X014032Y009804D02*
X013970Y009804D01*
X014620Y005064D02*
X014700Y005064D01*
X014700Y004945D02*
X014620Y004945D01*
X014620Y004827D02*
X014700Y004827D01*
X013325Y001272D02*
X012867Y001272D01*
X012986Y001153D02*
X013206Y001153D01*
X013147Y001035D02*
X013045Y001035D01*
X013076Y000916D02*
X013116Y000916D01*
X013116Y000798D02*
X013076Y000798D01*
X013039Y000679D02*
X013153Y000679D01*
X013221Y000561D02*
X012971Y000561D01*
X012831Y000442D02*
X013361Y000442D01*
X013831Y000442D02*
X019354Y000442D01*
X019510Y000561D02*
X013971Y000561D01*
X008434Y005656D02*
X006685Y005656D01*
X006704Y005775D02*
X006567Y005775D01*
X006448Y005893D02*
X006704Y005893D01*
X006627Y006012D02*
X006330Y006012D01*
X006114Y005775D02*
X005875Y005775D01*
X005825Y005656D02*
X006233Y005656D01*
X006351Y005538D02*
X006006Y005538D01*
X006091Y005419D02*
X006470Y005419D01*
X006588Y005301D02*
X006140Y005301D01*
X006140Y005182D02*
X006704Y005182D01*
X006704Y005064D02*
X006121Y005064D01*
X006072Y004945D02*
X006729Y004945D01*
X006704Y004708D02*
X001982Y004708D01*
X002040Y004590D02*
X006219Y004590D01*
X006180Y004471D02*
X002040Y004471D01*
X001943Y004353D02*
X006187Y004353D01*
X007685Y004945D02*
X007745Y004945D01*
X006205Y007434D02*
X006085Y007434D01*
X006087Y007552D02*
X005992Y007552D01*
X005968Y007671D02*
X005790Y007671D01*
X006754Y008737D02*
X006757Y008737D01*
X006755Y008856D02*
X006636Y008856D01*
X006704Y008974D02*
X006517Y008974D01*
X006446Y009093D02*
X006399Y009093D01*
X003880Y006604D02*
X000320Y006604D01*
X000320Y006486D02*
X003762Y006486D01*
X003708Y006367D02*
X000320Y006367D01*
X000320Y006249D02*
X003680Y006249D01*
X003680Y006130D02*
X000320Y006130D01*
X000320Y006012D02*
X003721Y006012D01*
X003793Y005893D02*
X000320Y005893D01*
X000320Y005775D02*
X003945Y005775D01*
X003995Y005656D02*
X000320Y005656D01*
X000320Y005538D02*
X003814Y005538D01*
X003729Y005419D02*
X000320Y005419D01*
X000320Y005301D02*
X003680Y005301D01*
X003680Y005182D02*
X000320Y005182D01*
X000320Y005064D02*
X003699Y005064D01*
X003748Y004945D02*
X000320Y004945D01*
X000320Y004827D02*
X003860Y004827D01*
X001834Y002931D02*
X000320Y002931D01*
X000320Y003049D02*
X001715Y003049D01*
X001597Y003168D02*
X000320Y003168D01*
X000320Y003286D02*
X001478Y003286D01*
X001360Y003405D02*
X000320Y003405D01*
X000320Y003523D02*
X001241Y003523D01*
X001130Y003642D02*
X000320Y003642D01*
X000320Y003760D02*
X001165Y003760D01*
X001284Y003879D02*
X000320Y003879D01*
X000320Y003997D02*
X001402Y003997D01*
X001521Y004116D02*
X000320Y004116D01*
X000320Y004234D02*
X001623Y004234D01*
X001623Y004353D02*
X000320Y004353D01*
X000320Y004471D02*
X001580Y004471D01*
X001580Y004590D02*
X000320Y004590D01*
X000320Y004708D02*
X001638Y004708D01*
X002943Y002101D02*
X000320Y002101D01*
X000320Y001983D02*
X002844Y001983D01*
X004084Y001509D02*
X006537Y001509D01*
X006656Y001627D02*
X004202Y001627D01*
D28*
X015619Y014155D02*
X015619Y014796D01*
X014760Y015655D01*
X014710Y015705D01*
X015860Y016855D01*
X016344Y015672D02*
X016827Y015672D01*
X017310Y016155D01*
X016344Y015672D02*
X016344Y015471D01*
X016860Y014955D01*
X016860Y014175D01*
X016840Y014155D01*
M02*
