G75*
%MOIN*%
%OFA0B0*%
%FSLAX24Y24*%
%IPPOS*%
%LPD*%
%AMOC8*
5,1,8,0,0,1.08239X$1,22.5*
%
%ADD10C,0.0000*%
%ADD11C,0.0050*%
%ADD12R,0.6200X0.2450*%
%ADD13C,0.0110*%
%ADD14C,0.0080*%
D10*
X000947Y000205D02*
X019058Y000205D01*
X019112Y000207D01*
X019165Y000212D01*
X019218Y000221D01*
X019270Y000234D01*
X019322Y000250D01*
X019372Y000270D01*
X019420Y000293D01*
X019467Y000320D01*
X019512Y000349D01*
X019555Y000382D01*
X019595Y000417D01*
X019633Y000455D01*
X019668Y000495D01*
X019701Y000538D01*
X019730Y000583D01*
X019757Y000630D01*
X019780Y000678D01*
X019800Y000728D01*
X019816Y000780D01*
X019829Y000832D01*
X019838Y000885D01*
X019843Y000938D01*
X019845Y000992D01*
X019845Y019103D01*
X019843Y019157D01*
X019838Y019210D01*
X019829Y019263D01*
X019816Y019315D01*
X019800Y019367D01*
X019780Y019417D01*
X019757Y019465D01*
X019730Y019512D01*
X019701Y019557D01*
X019668Y019600D01*
X019633Y019640D01*
X019595Y019678D01*
X019555Y019713D01*
X019512Y019746D01*
X019467Y019775D01*
X019420Y019802D01*
X019372Y019825D01*
X019322Y019845D01*
X019270Y019861D01*
X019218Y019874D01*
X019165Y019883D01*
X019112Y019888D01*
X019058Y019890D01*
X000947Y019890D01*
X000893Y019888D01*
X000840Y019883D01*
X000787Y019874D01*
X000735Y019861D01*
X000683Y019845D01*
X000633Y019825D01*
X000585Y019802D01*
X000538Y019775D01*
X000493Y019746D01*
X000450Y019713D01*
X000410Y019678D01*
X000372Y019640D01*
X000337Y019600D01*
X000304Y019557D01*
X000275Y019512D01*
X000248Y019465D01*
X000225Y019417D01*
X000205Y019367D01*
X000189Y019315D01*
X000176Y019263D01*
X000167Y019210D01*
X000162Y019157D01*
X000160Y019103D01*
X000160Y000992D01*
X000162Y000938D01*
X000167Y000885D01*
X000176Y000832D01*
X000189Y000780D01*
X000205Y000728D01*
X000225Y000678D01*
X000248Y000630D01*
X000275Y000583D01*
X000304Y000538D01*
X000337Y000495D01*
X000372Y000455D01*
X000410Y000417D01*
X000450Y000382D01*
X000493Y000349D01*
X000538Y000320D01*
X000585Y000293D01*
X000633Y000270D01*
X000683Y000250D01*
X000735Y000234D01*
X000787Y000221D01*
X000840Y000212D01*
X000893Y000207D01*
X000947Y000205D01*
X000753Y001192D02*
X000755Y001231D01*
X000761Y001270D01*
X000771Y001308D01*
X000784Y001345D01*
X000801Y001380D01*
X000821Y001414D01*
X000845Y001445D01*
X000872Y001474D01*
X000901Y001500D01*
X000933Y001523D01*
X000967Y001543D01*
X001003Y001559D01*
X001040Y001571D01*
X001079Y001580D01*
X001118Y001585D01*
X001157Y001586D01*
X001196Y001583D01*
X001235Y001576D01*
X001272Y001565D01*
X001309Y001551D01*
X001344Y001533D01*
X001377Y001512D01*
X001408Y001487D01*
X001436Y001460D01*
X001461Y001430D01*
X001483Y001397D01*
X001502Y001363D01*
X001517Y001327D01*
X001529Y001289D01*
X001537Y001251D01*
X001541Y001212D01*
X001541Y001172D01*
X001537Y001133D01*
X001529Y001095D01*
X001517Y001057D01*
X001502Y001021D01*
X001483Y000987D01*
X001461Y000954D01*
X001436Y000924D01*
X001408Y000897D01*
X001377Y000872D01*
X001344Y000851D01*
X001309Y000833D01*
X001272Y000819D01*
X001235Y000808D01*
X001196Y000801D01*
X001157Y000798D01*
X001118Y000799D01*
X001079Y000804D01*
X001040Y000813D01*
X001003Y000825D01*
X000967Y000841D01*
X000933Y000861D01*
X000901Y000884D01*
X000872Y000910D01*
X000845Y000939D01*
X000821Y000970D01*
X000801Y001004D01*
X000784Y001039D01*
X000771Y001076D01*
X000761Y001114D01*
X000755Y001153D01*
X000753Y001192D01*
X000753Y018903D02*
X000755Y018942D01*
X000761Y018981D01*
X000771Y019019D01*
X000784Y019056D01*
X000801Y019091D01*
X000821Y019125D01*
X000845Y019156D01*
X000872Y019185D01*
X000901Y019211D01*
X000933Y019234D01*
X000967Y019254D01*
X001003Y019270D01*
X001040Y019282D01*
X001079Y019291D01*
X001118Y019296D01*
X001157Y019297D01*
X001196Y019294D01*
X001235Y019287D01*
X001272Y019276D01*
X001309Y019262D01*
X001344Y019244D01*
X001377Y019223D01*
X001408Y019198D01*
X001436Y019171D01*
X001461Y019141D01*
X001483Y019108D01*
X001502Y019074D01*
X001517Y019038D01*
X001529Y019000D01*
X001537Y018962D01*
X001541Y018923D01*
X001541Y018883D01*
X001537Y018844D01*
X001529Y018806D01*
X001517Y018768D01*
X001502Y018732D01*
X001483Y018698D01*
X001461Y018665D01*
X001436Y018635D01*
X001408Y018608D01*
X001377Y018583D01*
X001344Y018562D01*
X001309Y018544D01*
X001272Y018530D01*
X001235Y018519D01*
X001196Y018512D01*
X001157Y018509D01*
X001118Y018510D01*
X001079Y018515D01*
X001040Y018524D01*
X001003Y018536D01*
X000967Y018552D01*
X000933Y018572D01*
X000901Y018595D01*
X000872Y018621D01*
X000845Y018650D01*
X000821Y018681D01*
X000801Y018715D01*
X000784Y018750D01*
X000771Y018787D01*
X000761Y018825D01*
X000755Y018864D01*
X000753Y018903D01*
X018464Y018903D02*
X018466Y018942D01*
X018472Y018981D01*
X018482Y019019D01*
X018495Y019056D01*
X018512Y019091D01*
X018532Y019125D01*
X018556Y019156D01*
X018583Y019185D01*
X018612Y019211D01*
X018644Y019234D01*
X018678Y019254D01*
X018714Y019270D01*
X018751Y019282D01*
X018790Y019291D01*
X018829Y019296D01*
X018868Y019297D01*
X018907Y019294D01*
X018946Y019287D01*
X018983Y019276D01*
X019020Y019262D01*
X019055Y019244D01*
X019088Y019223D01*
X019119Y019198D01*
X019147Y019171D01*
X019172Y019141D01*
X019194Y019108D01*
X019213Y019074D01*
X019228Y019038D01*
X019240Y019000D01*
X019248Y018962D01*
X019252Y018923D01*
X019252Y018883D01*
X019248Y018844D01*
X019240Y018806D01*
X019228Y018768D01*
X019213Y018732D01*
X019194Y018698D01*
X019172Y018665D01*
X019147Y018635D01*
X019119Y018608D01*
X019088Y018583D01*
X019055Y018562D01*
X019020Y018544D01*
X018983Y018530D01*
X018946Y018519D01*
X018907Y018512D01*
X018868Y018509D01*
X018829Y018510D01*
X018790Y018515D01*
X018751Y018524D01*
X018714Y018536D01*
X018678Y018552D01*
X018644Y018572D01*
X018612Y018595D01*
X018583Y018621D01*
X018556Y018650D01*
X018532Y018681D01*
X018512Y018715D01*
X018495Y018750D01*
X018482Y018787D01*
X018472Y018825D01*
X018466Y018864D01*
X018464Y018903D01*
X018464Y001192D02*
X018466Y001231D01*
X018472Y001270D01*
X018482Y001308D01*
X018495Y001345D01*
X018512Y001380D01*
X018532Y001414D01*
X018556Y001445D01*
X018583Y001474D01*
X018612Y001500D01*
X018644Y001523D01*
X018678Y001543D01*
X018714Y001559D01*
X018751Y001571D01*
X018790Y001580D01*
X018829Y001585D01*
X018868Y001586D01*
X018907Y001583D01*
X018946Y001576D01*
X018983Y001565D01*
X019020Y001551D01*
X019055Y001533D01*
X019088Y001512D01*
X019119Y001487D01*
X019147Y001460D01*
X019172Y001430D01*
X019194Y001397D01*
X019213Y001363D01*
X019228Y001327D01*
X019240Y001289D01*
X019248Y001251D01*
X019252Y001212D01*
X019252Y001172D01*
X019248Y001133D01*
X019240Y001095D01*
X019228Y001057D01*
X019213Y001021D01*
X019194Y000987D01*
X019172Y000954D01*
X019147Y000924D01*
X019119Y000897D01*
X019088Y000872D01*
X019055Y000851D01*
X019020Y000833D01*
X018983Y000819D01*
X018946Y000808D01*
X018907Y000801D01*
X018868Y000798D01*
X018829Y000799D01*
X018790Y000804D01*
X018751Y000813D01*
X018714Y000825D01*
X018678Y000841D01*
X018644Y000861D01*
X018612Y000884D01*
X018583Y000910D01*
X018556Y000939D01*
X018532Y000970D01*
X018512Y001004D01*
X018495Y001039D01*
X018482Y001076D01*
X018472Y001114D01*
X018466Y001153D01*
X018464Y001192D01*
D11*
X011851Y001992D02*
X011806Y001947D01*
X011716Y001947D01*
X011671Y001992D01*
X011671Y002037D01*
X011716Y002082D01*
X011806Y002082D01*
X011851Y002127D01*
X011851Y002173D01*
X011806Y002218D01*
X011716Y002218D01*
X011671Y002173D01*
X011466Y002218D02*
X011376Y002218D01*
X011421Y002218D02*
X011421Y001992D01*
X011466Y001947D01*
X011511Y001947D01*
X011556Y001992D01*
X011261Y001947D02*
X011081Y001947D01*
X011171Y001947D02*
X011171Y002218D01*
X011261Y002127D01*
X017597Y016750D02*
X017777Y016750D01*
X017597Y016931D01*
X017597Y016976D01*
X017642Y017021D01*
X017732Y017021D01*
X017777Y016976D01*
X017892Y017021D02*
X017982Y017021D01*
X017937Y017021D02*
X017937Y016796D01*
X017982Y016750D01*
X018027Y016750D01*
X018072Y016796D01*
X018186Y016796D02*
X018231Y016750D01*
X018321Y016750D01*
X018366Y016796D01*
X018321Y016886D02*
X018231Y016886D01*
X018186Y016841D01*
X018186Y016796D01*
X018321Y016886D02*
X018366Y016931D01*
X018366Y016976D01*
X018321Y017021D01*
X018231Y017021D01*
X018186Y016976D01*
D12*
X010160Y009340D03*
X010160Y005469D03*
D13*
X010278Y007051D02*
X010278Y007346D01*
X010377Y007445D01*
X010574Y007445D01*
X010672Y007346D01*
X010923Y007445D02*
X011218Y007445D01*
X011317Y007346D01*
X011218Y007248D01*
X011021Y007248D01*
X010923Y007149D01*
X011021Y007051D01*
X011317Y007051D01*
X011567Y007051D02*
X011567Y007346D01*
X011666Y007445D01*
X011863Y007445D01*
X011863Y007248D02*
X011567Y007248D01*
X011567Y007051D02*
X011863Y007051D01*
X011961Y007149D01*
X011863Y007248D01*
X012194Y007051D02*
X012391Y007051D01*
X012292Y007051D02*
X012292Y007641D01*
X012391Y007641D01*
X012642Y007641D02*
X013035Y007641D01*
X013035Y007051D01*
X013035Y007346D02*
X012838Y007346D01*
X010672Y007641D02*
X010672Y007051D01*
X009383Y007051D02*
X009088Y007051D01*
X008989Y007149D01*
X009088Y007248D01*
X009284Y007248D01*
X009383Y007346D01*
X009284Y007445D01*
X008989Y007445D01*
X008738Y007445D02*
X008640Y007445D01*
X008640Y007051D01*
X008738Y007051D02*
X008541Y007051D01*
X008309Y007051D02*
X007915Y007051D01*
X007664Y007149D02*
X007664Y007346D01*
X007566Y007445D01*
X007369Y007445D01*
X007270Y007346D01*
X007270Y007248D01*
X007664Y007248D01*
X007664Y007149D02*
X007566Y007051D01*
X007369Y007051D01*
X007915Y007445D02*
X008309Y007051D01*
X008309Y007445D02*
X007915Y007445D01*
X008640Y007641D02*
X008640Y007740D01*
X008792Y010714D02*
X008792Y011305D01*
X008497Y011305D01*
X008398Y011206D01*
X008398Y011010D01*
X008497Y010911D01*
X008792Y010911D01*
X009043Y010911D02*
X009338Y010911D01*
X009436Y011010D01*
X009436Y011305D01*
X009669Y011305D02*
X009866Y011305D01*
X009768Y011403D02*
X009768Y011010D01*
X009669Y010911D01*
X009240Y010714D02*
X009141Y010714D01*
X009043Y010813D01*
X009043Y011305D01*
X008147Y011206D02*
X008147Y011010D01*
X008049Y010911D01*
X007852Y010911D01*
X007754Y011108D02*
X008147Y011108D01*
X008147Y011206D02*
X008049Y011305D01*
X007852Y011305D01*
X007754Y011206D01*
X007754Y011108D01*
X010762Y011206D02*
X010860Y011108D01*
X011155Y011108D01*
X011155Y010911D02*
X011155Y011502D01*
X010860Y011502D01*
X010762Y011403D01*
X010762Y011206D01*
X011406Y011108D02*
X011406Y011010D01*
X011505Y010911D01*
X011701Y010911D01*
X011800Y011010D01*
X011701Y011206D02*
X011505Y011206D01*
X011406Y011108D01*
X011406Y011403D02*
X011505Y011502D01*
X011701Y011502D01*
X011800Y011403D01*
X011800Y011305D01*
X011701Y011206D01*
X012051Y010911D02*
X012444Y010911D01*
X012444Y011502D01*
X012051Y011502D01*
X012248Y011206D02*
X012444Y011206D01*
D14*
X016545Y016511D02*
X017175Y016511D01*
X017175Y016512D02*
X017191Y016517D01*
X017207Y016525D01*
X017221Y016535D01*
X017233Y016547D01*
X017243Y016562D01*
X017250Y016578D01*
X017254Y016595D01*
X017255Y016612D01*
X017253Y016630D01*
X017253Y017180D02*
X017255Y017198D01*
X017254Y017215D01*
X017250Y017232D01*
X017243Y017248D01*
X017233Y017263D01*
X017221Y017275D01*
X017207Y017285D01*
X017191Y017293D01*
X017175Y017298D01*
X017175Y017299D02*
X016545Y017299D01*
X016545Y017298D02*
X016529Y017293D01*
X016513Y017285D01*
X016499Y017275D01*
X016487Y017263D01*
X016477Y017248D01*
X016470Y017232D01*
X016466Y017215D01*
X016465Y017198D01*
X016467Y017180D01*
X016467Y016630D02*
X016465Y016612D01*
X016466Y016595D01*
X016470Y016578D01*
X016477Y016562D01*
X016487Y016547D01*
X016499Y016535D01*
X016513Y016525D01*
X016529Y016517D01*
X016545Y016512D01*
X011775Y003199D02*
X011145Y003199D01*
X011145Y003198D02*
X011129Y003193D01*
X011113Y003185D01*
X011099Y003175D01*
X011087Y003163D01*
X011077Y003148D01*
X011070Y003132D01*
X011066Y003115D01*
X011065Y003098D01*
X011067Y003080D01*
X011067Y002530D02*
X011065Y002512D01*
X011066Y002495D01*
X011070Y002478D01*
X011077Y002462D01*
X011087Y002447D01*
X011099Y002435D01*
X011113Y002425D01*
X011129Y002417D01*
X011145Y002412D01*
X011145Y002411D02*
X011775Y002411D01*
X011775Y002412D02*
X011791Y002417D01*
X011807Y002425D01*
X011821Y002435D01*
X011833Y002447D01*
X011843Y002462D01*
X011850Y002478D01*
X011854Y002495D01*
X011855Y002512D01*
X011853Y002530D01*
X011853Y003080D02*
X011855Y003098D01*
X011854Y003115D01*
X011850Y003132D01*
X011843Y003148D01*
X011833Y003163D01*
X011821Y003175D01*
X011807Y003185D01*
X011791Y003193D01*
X011775Y003198D01*
M02*
