G75*
%MOIN*%
%OFA0B0*%
%FSLAX24Y24*%
%IPPOS*%
%LPD*%
%AMOC8*
5,1,8,0,0,1.08239X$1,22.5*
%
%ADD10C,0.0000*%
D10*
X000947Y000205D02*
X019058Y000205D01*
X019112Y000207D01*
X019165Y000212D01*
X019218Y000221D01*
X019270Y000234D01*
X019322Y000250D01*
X019372Y000270D01*
X019420Y000293D01*
X019467Y000320D01*
X019512Y000349D01*
X019555Y000382D01*
X019595Y000417D01*
X019633Y000455D01*
X019668Y000495D01*
X019701Y000538D01*
X019730Y000583D01*
X019757Y000630D01*
X019780Y000678D01*
X019800Y000728D01*
X019816Y000780D01*
X019829Y000832D01*
X019838Y000885D01*
X019843Y000938D01*
X019845Y000992D01*
X019845Y019103D01*
X019843Y019157D01*
X019838Y019210D01*
X019829Y019263D01*
X019816Y019315D01*
X019800Y019367D01*
X019780Y019417D01*
X019757Y019465D01*
X019730Y019512D01*
X019701Y019557D01*
X019668Y019600D01*
X019633Y019640D01*
X019595Y019678D01*
X019555Y019713D01*
X019512Y019746D01*
X019467Y019775D01*
X019420Y019802D01*
X019372Y019825D01*
X019322Y019845D01*
X019270Y019861D01*
X019218Y019874D01*
X019165Y019883D01*
X019112Y019888D01*
X019058Y019890D01*
X000947Y019890D01*
X000893Y019888D01*
X000840Y019883D01*
X000787Y019874D01*
X000735Y019861D01*
X000683Y019845D01*
X000633Y019825D01*
X000585Y019802D01*
X000538Y019775D01*
X000493Y019746D01*
X000450Y019713D01*
X000410Y019678D01*
X000372Y019640D01*
X000337Y019600D01*
X000304Y019557D01*
X000275Y019512D01*
X000248Y019465D01*
X000225Y019417D01*
X000205Y019367D01*
X000189Y019315D01*
X000176Y019263D01*
X000167Y019210D01*
X000162Y019157D01*
X000160Y019103D01*
X000160Y000992D01*
X000162Y000938D01*
X000167Y000885D01*
X000176Y000832D01*
X000189Y000780D01*
X000205Y000728D01*
X000225Y000678D01*
X000248Y000630D01*
X000275Y000583D01*
X000304Y000538D01*
X000337Y000495D01*
X000372Y000455D01*
X000410Y000417D01*
X000450Y000382D01*
X000493Y000349D01*
X000538Y000320D01*
X000585Y000293D01*
X000633Y000270D01*
X000683Y000250D01*
X000735Y000234D01*
X000787Y000221D01*
X000840Y000212D01*
X000893Y000207D01*
X000947Y000205D01*
X000753Y001192D02*
X000755Y001231D01*
X000761Y001270D01*
X000771Y001308D01*
X000784Y001345D01*
X000801Y001380D01*
X000821Y001414D01*
X000845Y001445D01*
X000872Y001474D01*
X000901Y001500D01*
X000933Y001523D01*
X000967Y001543D01*
X001003Y001559D01*
X001040Y001571D01*
X001079Y001580D01*
X001118Y001585D01*
X001157Y001586D01*
X001196Y001583D01*
X001235Y001576D01*
X001272Y001565D01*
X001309Y001551D01*
X001344Y001533D01*
X001377Y001512D01*
X001408Y001487D01*
X001436Y001460D01*
X001461Y001430D01*
X001483Y001397D01*
X001502Y001363D01*
X001517Y001327D01*
X001529Y001289D01*
X001537Y001251D01*
X001541Y001212D01*
X001541Y001172D01*
X001537Y001133D01*
X001529Y001095D01*
X001517Y001057D01*
X001502Y001021D01*
X001483Y000987D01*
X001461Y000954D01*
X001436Y000924D01*
X001408Y000897D01*
X001377Y000872D01*
X001344Y000851D01*
X001309Y000833D01*
X001272Y000819D01*
X001235Y000808D01*
X001196Y000801D01*
X001157Y000798D01*
X001118Y000799D01*
X001079Y000804D01*
X001040Y000813D01*
X001003Y000825D01*
X000967Y000841D01*
X000933Y000861D01*
X000901Y000884D01*
X000872Y000910D01*
X000845Y000939D01*
X000821Y000970D01*
X000801Y001004D01*
X000784Y001039D01*
X000771Y001076D01*
X000761Y001114D01*
X000755Y001153D01*
X000753Y001192D01*
X014179Y016420D02*
X014179Y017286D01*
X014376Y017483D02*
X014402Y017481D01*
X014427Y017476D01*
X014451Y017468D01*
X014475Y017457D01*
X014496Y017442D01*
X014515Y017425D01*
X014532Y017406D01*
X014547Y017385D01*
X014558Y017361D01*
X014566Y017337D01*
X014571Y017312D01*
X014573Y017286D01*
X014573Y016420D01*
X014571Y016394D01*
X014566Y016369D01*
X014558Y016345D01*
X014547Y016322D01*
X014532Y016300D01*
X014515Y016281D01*
X014496Y016264D01*
X014475Y016249D01*
X014451Y016238D01*
X014427Y016230D01*
X014402Y016225D01*
X014376Y016223D01*
X014350Y016225D01*
X014325Y016230D01*
X014301Y016238D01*
X014278Y016249D01*
X014256Y016264D01*
X014237Y016281D01*
X014220Y016300D01*
X014205Y016322D01*
X014194Y016345D01*
X014186Y016369D01*
X014181Y016394D01*
X014179Y016420D01*
X014179Y017286D02*
X014181Y017312D01*
X014186Y017337D01*
X014194Y017361D01*
X014205Y017385D01*
X014220Y017406D01*
X014237Y017425D01*
X014256Y017442D01*
X014278Y017457D01*
X014301Y017468D01*
X014325Y017476D01*
X014350Y017481D01*
X014376Y017483D01*
X015911Y017955D02*
X016777Y017955D01*
X016974Y018152D02*
X016972Y018178D01*
X016967Y018203D01*
X016959Y018227D01*
X016948Y018251D01*
X016933Y018272D01*
X016916Y018291D01*
X016897Y018308D01*
X016876Y018323D01*
X016852Y018334D01*
X016828Y018342D01*
X016803Y018347D01*
X016777Y018349D01*
X015911Y018349D01*
X015885Y018347D01*
X015860Y018342D01*
X015836Y018334D01*
X015813Y018323D01*
X015791Y018308D01*
X015772Y018291D01*
X015755Y018272D01*
X015740Y018251D01*
X015729Y018227D01*
X015721Y018203D01*
X015716Y018178D01*
X015714Y018152D01*
X015716Y018126D01*
X015721Y018101D01*
X015729Y018077D01*
X015740Y018054D01*
X015755Y018032D01*
X015772Y018013D01*
X015791Y017996D01*
X015813Y017981D01*
X015836Y017970D01*
X015860Y017962D01*
X015885Y017957D01*
X015911Y017955D01*
X016777Y017955D02*
X016803Y017957D01*
X016828Y017962D01*
X016852Y017970D01*
X016876Y017981D01*
X016897Y017996D01*
X016916Y018013D01*
X016933Y018032D01*
X016948Y018054D01*
X016959Y018077D01*
X016967Y018101D01*
X016972Y018126D01*
X016974Y018152D01*
X018464Y018903D02*
X018466Y018942D01*
X018472Y018981D01*
X018482Y019019D01*
X018495Y019056D01*
X018512Y019091D01*
X018532Y019125D01*
X018556Y019156D01*
X018583Y019185D01*
X018612Y019211D01*
X018644Y019234D01*
X018678Y019254D01*
X018714Y019270D01*
X018751Y019282D01*
X018790Y019291D01*
X018829Y019296D01*
X018868Y019297D01*
X018907Y019294D01*
X018946Y019287D01*
X018983Y019276D01*
X019020Y019262D01*
X019055Y019244D01*
X019088Y019223D01*
X019119Y019198D01*
X019147Y019171D01*
X019172Y019141D01*
X019194Y019108D01*
X019213Y019074D01*
X019228Y019038D01*
X019240Y019000D01*
X019248Y018962D01*
X019252Y018923D01*
X019252Y018883D01*
X019248Y018844D01*
X019240Y018806D01*
X019228Y018768D01*
X019213Y018732D01*
X019194Y018698D01*
X019172Y018665D01*
X019147Y018635D01*
X019119Y018608D01*
X019088Y018583D01*
X019055Y018562D01*
X019020Y018544D01*
X018983Y018530D01*
X018946Y018519D01*
X018907Y018512D01*
X018868Y018509D01*
X018829Y018510D01*
X018790Y018515D01*
X018751Y018524D01*
X018714Y018536D01*
X018678Y018552D01*
X018644Y018572D01*
X018612Y018595D01*
X018583Y018621D01*
X018556Y018650D01*
X018532Y018681D01*
X018512Y018715D01*
X018495Y018750D01*
X018482Y018787D01*
X018472Y018825D01*
X018466Y018864D01*
X018464Y018903D01*
X016777Y015869D02*
X015911Y015869D01*
X015885Y015867D01*
X015860Y015862D01*
X015836Y015854D01*
X015813Y015843D01*
X015791Y015828D01*
X015772Y015811D01*
X015755Y015792D01*
X015740Y015771D01*
X015729Y015747D01*
X015721Y015723D01*
X015716Y015698D01*
X015714Y015672D01*
X016974Y015672D01*
X016972Y015698D01*
X016967Y015723D01*
X016959Y015747D01*
X016948Y015771D01*
X016933Y015792D01*
X016916Y015811D01*
X016897Y015828D01*
X016876Y015843D01*
X016852Y015854D01*
X016828Y015862D01*
X016803Y015867D01*
X016777Y015869D01*
X016974Y015672D02*
X016972Y015646D01*
X016967Y015621D01*
X016959Y015597D01*
X016948Y015574D01*
X016933Y015552D01*
X016916Y015533D01*
X016897Y015516D01*
X016876Y015501D01*
X016852Y015490D01*
X016828Y015482D01*
X016803Y015477D01*
X016777Y015475D01*
X015911Y015475D01*
X015885Y015477D01*
X015860Y015482D01*
X015836Y015490D01*
X015813Y015501D01*
X015791Y015516D01*
X015772Y015533D01*
X015755Y015552D01*
X015740Y015574D01*
X015729Y015597D01*
X015721Y015621D01*
X015716Y015646D01*
X015714Y015672D01*
X018464Y001192D02*
X018466Y001231D01*
X018472Y001270D01*
X018482Y001308D01*
X018495Y001345D01*
X018512Y001380D01*
X018532Y001414D01*
X018556Y001445D01*
X018583Y001474D01*
X018612Y001500D01*
X018644Y001523D01*
X018678Y001543D01*
X018714Y001559D01*
X018751Y001571D01*
X018790Y001580D01*
X018829Y001585D01*
X018868Y001586D01*
X018907Y001583D01*
X018946Y001576D01*
X018983Y001565D01*
X019020Y001551D01*
X019055Y001533D01*
X019088Y001512D01*
X019119Y001487D01*
X019147Y001460D01*
X019172Y001430D01*
X019194Y001397D01*
X019213Y001363D01*
X019228Y001327D01*
X019240Y001289D01*
X019248Y001251D01*
X019252Y001212D01*
X019252Y001172D01*
X019248Y001133D01*
X019240Y001095D01*
X019228Y001057D01*
X019213Y001021D01*
X019194Y000987D01*
X019172Y000954D01*
X019147Y000924D01*
X019119Y000897D01*
X019088Y000872D01*
X019055Y000851D01*
X019020Y000833D01*
X018983Y000819D01*
X018946Y000808D01*
X018907Y000801D01*
X018868Y000798D01*
X018829Y000799D01*
X018790Y000804D01*
X018751Y000813D01*
X018714Y000825D01*
X018678Y000841D01*
X018644Y000861D01*
X018612Y000884D01*
X018583Y000910D01*
X018556Y000939D01*
X018532Y000970D01*
X018512Y001004D01*
X018495Y001039D01*
X018482Y001076D01*
X018472Y001114D01*
X018466Y001153D01*
X018464Y001192D01*
X000753Y018903D02*
X000755Y018942D01*
X000761Y018981D01*
X000771Y019019D01*
X000784Y019056D01*
X000801Y019091D01*
X000821Y019125D01*
X000845Y019156D01*
X000872Y019185D01*
X000901Y019211D01*
X000933Y019234D01*
X000967Y019254D01*
X001003Y019270D01*
X001040Y019282D01*
X001079Y019291D01*
X001118Y019296D01*
X001157Y019297D01*
X001196Y019294D01*
X001235Y019287D01*
X001272Y019276D01*
X001309Y019262D01*
X001344Y019244D01*
X001377Y019223D01*
X001408Y019198D01*
X001436Y019171D01*
X001461Y019141D01*
X001483Y019108D01*
X001502Y019074D01*
X001517Y019038D01*
X001529Y019000D01*
X001537Y018962D01*
X001541Y018923D01*
X001541Y018883D01*
X001537Y018844D01*
X001529Y018806D01*
X001517Y018768D01*
X001502Y018732D01*
X001483Y018698D01*
X001461Y018665D01*
X001436Y018635D01*
X001408Y018608D01*
X001377Y018583D01*
X001344Y018562D01*
X001309Y018544D01*
X001272Y018530D01*
X001235Y018519D01*
X001196Y018512D01*
X001157Y018509D01*
X001118Y018510D01*
X001079Y018515D01*
X001040Y018524D01*
X001003Y018536D01*
X000967Y018552D01*
X000933Y018572D01*
X000901Y018595D01*
X000872Y018621D01*
X000845Y018650D01*
X000821Y018681D01*
X000801Y018715D01*
X000784Y018750D01*
X000771Y018787D01*
X000761Y018825D01*
X000755Y018864D01*
X000753Y018903D01*
M02*
