%
M48
M72
T01C0.0120
T02C0.0276
T03C0.0394
T04C0.0400
T05C0.0787
%
T01
X660Y2455
X660Y3055
X660Y3705
X660Y4305
X660Y4905
X660Y5505
X660Y6155
X660Y6805
X660Y7405
X660Y8005
X660Y8605
X660Y9205
X660Y9805
X660Y10405
X660Y11055
X660Y11705
X2010Y12205
X2910Y11355
X3710Y13505
X3410Y14105
X2910Y13955
X3360Y14705
X3360Y15305
X3360Y15905
X3360Y16455
X1960Y15555
X1410Y15555
X560Y15505
X560Y16055
X3860Y18255
X6210Y16505
X6860Y16505
X6860Y15705
X6260Y15705
X6660Y14905
X6310Y14355
X7460Y15705
X7710Y16105
X8260Y15705
X8860Y15705
X9460Y15705
X10060Y15705
X10660Y15705
X10160Y14455
X9460Y16455
X8160Y14455
X7810Y14105
X4910Y15455
X9060Y18905
X9560Y18905
X10060Y18905
X10060Y19505
X9560Y19505
X9060Y19505
X10660Y19505
X11260Y19505
X11860Y19505
X12360Y19505
X12860Y19505
X12860Y18905
X12360Y18905
X11860Y18905
X13560Y17755
X15160Y18105
X15860Y16855
X17310Y16155
X19310Y16205
X19310Y15505
X19310Y14855
X19310Y14205
X19310Y13555
X19310Y12955
X19310Y11655
X19310Y10955
X19310Y10305
X19310Y9705
X19310Y9055
X19310Y7855
X19310Y7305
X19310Y6705
X19310Y6055
X19310Y5405
X19310Y4805
X19310Y4205
X19310Y3605
X19310Y2955
X19310Y2355
X14510Y1355
X14510Y1855
X13660Y1855
X13060Y1855
X12010Y2805
X11810Y3505
X12110Y3805
X12110Y4305
X11910Y5055
X11410Y4705
X12460Y5855
X12160Y7155
X12160Y8105
X12160Y8705
X12160Y9305
X12160Y9905
X11560Y9905
X10960Y9905
X10160Y9905
X9360Y9905
X8760Y9905
X8160Y9905
X8160Y9305
X8160Y8705
X8160Y8105
X8160Y7505
X8160Y6505
X8560Y5855
X8160Y5655
X7910Y5105
X8960Y5305
X9960Y5155
X9660Y6705
X9360Y7355
X6410Y4455
X5910Y4155
X5910Y3655
X5910Y3105
X5810Y1855
X5810Y1155
X5810Y505
X6510Y1855
X7160Y1905
X9210Y1555
X9960Y3205
X10860Y2855
X12810Y3805
X13310Y3805
X13760Y3905
X13810Y4555
X13810Y5055
X15360Y6705
X15360Y7705
X15360Y8705
X15360Y9705
X15360Y10705
X12760Y13955
X13860Y6805
X14510Y555
X4960Y5705
X4960Y6705
X1810Y4555
T02
X910Y13364
X910Y13955
X910Y14546
T03
X16344Y15672
X14376Y16853
X16344Y18152
T04
X4160Y5205
X4160Y6205
X4160Y7205
X4160Y8205
X4160Y9205
X4160Y10205
X4160Y11205
X4160Y12205
X5660Y12205
X5660Y11205
X5660Y10205
X5660Y9205
X5660Y8205
X5660Y7205
X5660Y6205
X5660Y5205
X6596Y864
X7596Y864
X8596Y864
X9596Y864
X10596Y864
X11596Y864
X12596Y864
X13596Y864
X14660Y5205
X14660Y6205
X14660Y7205
X14660Y8205
X14660Y9205
X14660Y10205
X14660Y11205
X14660Y12205
X16160Y12205
X16160Y11205
X16160Y10205
X16160Y9205
X16160Y8205
X16160Y7205
X16160Y6205
X16160Y5205
X7860Y19305
X6860Y19305
X5860Y19305
X4860Y19305
X3860Y19305
X2860Y19305
T05
X1147Y1192
X1147Y18903
X18858Y18903
X18858Y1192
M30
